<svg xmlns="http://www.w3.org/2000/svg" version="1.1" xmlns:xlink="http://www.w3.org/1999/xlink" xmlns:svgjs="http://svgjs.com/svgjs" width="100%" height="100%"><svg width="100%" height="100%" viewBox="0 0 469 469" version="1.1" xmlns="http://www.w3.org/2000/svg" xmlns:xlink="http://www.w3.org/1999/xlink" xml:space="preserve" xmlns:serif="http://www.serif.com/" style="fill-rule:evenodd;clip-rule:evenodd;stroke-linejoin:round;stroke-miterlimit:2;">
    <g transform="matrix(0.48,0,0,0.48,-1608.76,-173.632)">
        <g transform="matrix(2.29116,0,0,1,1821.74,11.5073)">
            <g id="SvgjsG1001" transform="matrix(1,0,0,1,582.545,-22.7183)">
                <g id="SvgjsG1000" transform="matrix(0,-4.16667,-1.81858,0,298.215,393.362)">
                    <path d="M-112.25,-112.25C-174.244,-112.25 -224.5,-61.994 -224.5,0C-224.5,61.994 -174.244,112.25 -112.25,112.25C-50.256,112.25 0,61.994 0,0C0,-61.994 -50.256,-112.25 -112.25,-112.25" style="fill:none;fill-rule:nonzero;"></path>
                </g>
                <g transform="matrix(0.43646,0,0,1,-1377.66,11.2111)">
                    <path d="M4218.82,850.16L4223.43,843.033C4224.49,843.202 4225.58,843.212 4226.72,843.077C4231.09,842.585 4235.72,843.485 4239.82,841.227C4242.58,839.694 4245.21,837.698 4248.04,836.352C4250.12,835.365 4252.41,834.981 4254.65,834.548C4254.94,834.477 4255.57,835.544 4255.86,836.194C4256,836.544 4255.81,837.36 4255.57,837.602C4254.56,838.66 4253.45,839.581 4252.38,840.506C4246.44,845.802 4240.37,850.623 4232.77,851.281C4230.97,851.435 4230.24,853.398 4231.08,855.952C4232.58,860.481 4234.36,864.869 4236.06,869.277C4236.54,870.49 4237.29,871.535 4237.77,872.735C4238.43,874.323 4238.59,876.148 4237.34,876.806C4236.69,877.144 4235.19,876.615 4234.76,875.86C4232.09,870.91 4229.61,865.831 4227.09,860.748C4226.75,860.065 4226.54,859.244 4226.38,858.452C4225.47,853.998 4223.36,851.702 4220.06,850.635C4219.64,850.497 4219.23,850.338 4218.82,850.16ZM4253.34,796.894L4257.84,789.948C4260.53,789.756 4262.77,790.827 4262.52,792.123C4262.04,794.706 4260.27,795.127 4258.58,795.631C4256.85,796.153 4255.1,796.581 4253.34,796.894ZM4186.45,900.086L4198.06,882.178C4199.51,882.331 4200.98,882.54 4202.41,882.644C4204.35,882.765 4206.36,883.198 4208.29,883.873C4209.56,884.327 4210.84,885.348 4212.01,886.394C4212.86,887.16 4212.76,889.31 4211.82,889.685C4210.62,890.19 4209.26,890.535 4208,890.285C4203.41,889.398 4199.03,889.623 4194.9,891.715C4194.18,892.048 4193.42,892.302 4192.8,892.794C4191.04,894.131 4190.62,896.085 4191.85,898.731C4196.26,908.123 4200.77,917.444 4205.28,926.777C4205.84,927.919 4206.63,928.902 4207.21,930.056C4208.07,931.715 4208.76,933.481 4207.69,935.165C4206.92,936.277 4205.28,935.885 4204.01,933.948C4201.68,930.381 4199.27,926.852 4197.31,922.935C4193.73,915.823 4190.44,908.46 4187.05,901.169C4186.86,900.776 4186.66,900.414 4186.45,900.086ZM4107.03,1022.62L4111.2,1016.19C4114.2,1019.29 4117.3,1022.28 4120.49,1024.98C4124.07,1028.02 4127.69,1027.8 4131.15,1025.59C4135.99,1022.5 4140.77,1019.24 4145.64,1016.26C4147.01,1015.4 4147.51,1014.07 4147.9,1012.27C4149.48,1004.52 4148.65,996.748 4146.45,988.823C4145.9,986.802 4145.59,984.685 4145.26,982.56C4145.22,982.273 4145.61,981.673 4145.87,981.59C4146.17,981.552 4146.77,981.827 4146.89,982.177C4149.72,989.552 4152.67,996.94 4152.43,1005.22C4152.4,1007.07 4152.24,1008.89 4152.12,1010.72C4151.95,1013.14 4152.71,1014.76 4154.43,1015.92C4155.68,1016.81 4156.83,1018.09 4158,1019.21C4161.15,1022.23 4164.32,1024.5 4167.91,1022.14C4168.28,1021.9 4169.31,1022.28 4169.43,1022.69C4169.77,1023.55 4170.06,1024.99 4169.75,1025.53C4166.25,1031.49 4163.45,1031.98 4159.48,1028.11C4151.67,1020.46 4152.77,1019.07 4143.35,1026.06C4140.57,1028.11 4137.65,1029.83 4135.07,1032.24C4128.55,1038.38 4121.94,1035.37 4115.25,1029.97C4113.51,1028.56 4111.93,1026.67 4110.29,1024.99C4109.2,1023.88 4108.12,1023.09 4107.03,1022.62ZM4068.83,1081.57L4074.98,1072.08C4077.2,1071.95 4079.43,1071.82 4081.67,1071.81C4085.18,1071.79 4087.93,1069.67 4090.2,1066.73C4092.48,1063.82 4094.32,1060.33 4096.41,1057.17C4096.86,1056.51 4097.68,1055.69 4098.19,1055.93C4099.4,1056.43 4099.18,1057.95 4099.08,1059.27C4098.64,1064.51 4097.83,1069.54 4094.81,1073.04C4094.44,1073.48 4094.34,1074.34 4093.93,1075.55C4096.13,1077.62 4098.19,1080.04 4100.48,1081.66C4103.97,1084.06 4107.43,1083.07 4110.71,1081.73C4112.33,1081.04 4113.76,1079.69 4115.4,1079.08C4116.1,1078.83 4117.2,1079.57 4118,1080.21C4118.19,1080.38 4118,1082.24 4117.61,1082.93C4114,1089.34 4102.18,1091.49 4096.3,1083.99C4095.4,1082.86 4094.47,1081.74 4093.51,1080.68C4092.11,1079.12 4090.58,1078.55 4089.13,1079.78C4083.33,1084.73 4076.51,1083.2 4069.91,1081.84C4069.55,1081.76 4069.19,1081.67 4068.83,1081.57ZM4050.5,1109.85L4055.92,1101.47C4056.45,1101.95 4057.03,1102.38 4057.66,1102.77C4061.6,1105.18 4065.11,1108.7 4068.04,1113.11C4073.8,1121.81 4080.97,1125.63 4088.83,1127.38C4090.12,1127.63 4091.66,1126.94 4092.55,1129.18C4093.05,1130.5 4091.65,1131.77 4089.22,1132.11C4082.15,1133.1 4075.59,1130.35 4069.56,1124.11C4067.28,1121.76 4065.01,1119.38 4062.53,1116.8C4061.64,1119.2 4062.71,1120.5 4063.58,1121.93C4067.52,1128.43 4067.49,1135.43 4066.54,1142.49C4066.48,1142.8 4065.95,1143.12 4065.64,1143.09C4065.31,1143.04 4064.76,1142.66 4064.67,1142.31C4064.03,1139.71 4063.39,1137.13 4062.93,1134.53C4062.06,1129.35 4060.14,1125.03 4057.43,1120.88C4055.07,1117.26 4052.76,1113.58 4050.5,1109.85ZM3921,1310.45L3905.56,1311.45C3893.73,1318.56 3855.95,1317.31 3820.95,1316.83C3779.7,1316.25 3739.8,1307.71 3739.6,1305.88C3738.39,1295.01 3737.58,1269.99 3736.68,1259.09C3736.26,1254.04 3736.09,1249.01 3735.84,1243.96C3735.56,1238.38 3735.39,1232.8 3735.12,1227.25C3734.56,1216.15 3735.76,1205.78 3739.61,1196.51C3742.16,1190.34 3744.91,1184.38 3747.28,1178.08C3751.81,1166.19 3756.89,1154.66 3757.59,1140.35C3757.9,1133.53 3758.03,1126.78 3757.06,1119.78C3755.31,1107.31 3753.12,1095.01 3750.11,1082.77C3748.18,1075.01 3747.47,1067.03 3747.86,1059.06C3748.01,1055.93 3747.52,1052.62 3747.89,1049.59C3749.29,1037.99 3744.43,1029.89 3737.79,1023.57C3732.19,1018.25 3725.95,1014.78 3719.27,1017.41C3718.26,1017.82 3716.96,1017.17 3715.81,1017.09C3714.24,1017.03 3712.54,1016.52 3711.19,1017.17C3705.55,1019.73 3700,1017.03 3694.53,1014.12C3690.21,1011.81 3686.11,1008.51 3681.77,1006.25C3675.56,1002.96 3669.2,1000.19 3662.9,997.302C3661.02,996.435 3659.04,995.881 3657.1,995.173C3651.82,993.215 3647.01,993.494 3642.91,998.056C3641.96,999.102 3640.63,999.86 3639.36,1000.07C3633.58,1000.98 3627.74,1000.98 3621.98,997.348C3617.01,994.215 3612.08,993.398 3607.01,994.585C3605.16,995.031 3603.08,995.344 3601.2,994.656C3593.42,991.881 3586.58,994.994 3579.72,997.61C3575.73,999.14 3572.01,1001.66 3568.23,1003.88C3563.11,1006.91 3559.35,1011.92 3556.6,1018.41C3555.92,1020.01 3555.41,1021.9 3553.66,1020.81C3551.8,1019.69 3549.89,1018.32 3549.62,1015.12C3549.55,1014.07 3549.64,1012.99 3549.87,1012C3550.84,1007.87 3551.96,1003.82 3552.87,999.619C3553.97,994.623 3556.28,991.306 3559.85,989.519C3560.84,989.01 3561.81,988.41 3562.91,987.765C3559.3,982.756 3551.65,975.823 3548.05,974.127C3547.1,973.685 3546.12,973.323 3545.26,972.615C3544.84,972.281 3544.45,971.248 3544.5,970.644C3544.53,970.044 3545.1,969.219 3545.51,969.206C3549.64,968.977 3553.75,969.852 3557.54,973.06C3561.19,976.16 3564.95,979.16 3568.34,982.79C3570.6,985.215 3572.61,985.615 3574.93,984.819C3578.43,983.581 3581.87,982.177 3585.41,981.131C3587.97,980.377 3590.64,979.765 3593.31,979.606C3597.06,979.402 3600.5,977.998 3603.86,976.398C3605.07,975.86 3606.12,974.681 3607.06,973.515C3608.28,972.04 3608.25,970.44 3606.98,968.698C3605.84,967.102 3604.59,965.565 3603.32,964.181C3597.17,957.585 3591,951.044 3584.82,944.481C3584.67,944.315 3584.46,944.185 3584.33,943.977C3577.75,933.602 3568.53,929.202 3560.35,922.477C3560.01,922.177 3559.64,921.935 3559.3,921.61C3551.29,914.252 3542.53,912.015 3533.71,911.965C3528.33,911.931 3522.92,911.906 3517.6,912.985C3511.6,914.19 3505.52,915.485 3499.18,914.177C3498.99,914.127 3498.79,914.14 3498.6,914.152C3490.88,914.727 3483.16,915.331 3475.43,915.835C3473.71,915.969 3471.98,916.065 3470.24,915.823C3468.97,915.677 3468.22,912.985 3469.25,912.173C3471.14,910.681 3473.14,908.965 3475.3,908.59C3480.61,907.727 3485.81,906.323 3491.38,906.719C3494.83,906.969 3498.37,907.152 3501.79,906.994C3506.61,906.815 3511.35,905.635 3516,904.34C3520.09,903.185 3523.94,901.01 3528.41,901.806C3528.78,901.877 3529.16,901.66 3529.53,901.59C3533.83,900.735 3534.25,900.135 3533.95,894.035C3533.66,888.173 3533.33,882.452 3534.28,876.76C3535.01,872.194 3533.9,867.244 3532.44,862.61C3530.55,856.506 3528.67,850.419 3526.71,844.34C3525.9,841.802 3525,839.331 3523.96,836.927C3521.31,830.777 3518.09,825.481 3512.88,823.052C3511.19,822.26 3509.5,821.169 3507.91,819.919C3506.51,818.835 3505.16,817.515 3503.98,815.977C3503.1,814.765 3502.73,813.035 3503.59,811.631C3504.44,810.165 3505.59,810.444 3506.7,811.485C3514.83,819.16 3523.62,825.027 3532.11,831.752C3534.33,833.531 3536.38,836.135 3538.16,838.815C3541,843.027 3544.1,843.223 3547.38,842.01C3548.83,841.444 3550.16,840.34 3551.57,839.79C3557.56,837.394 3563.52,834.931 3569.61,832.919C3571.56,832.277 3573.84,832.89 3575.98,833.131C3576.42,833.181 3577.27,834.202 3577.26,834.644C3577.21,835.51 3576.7,836.29 3576.36,837.085C3576.28,837.252 3576.04,837.31 3575.86,837.419C3567.3,841.96 3558.72,846.502 3550.16,851.031C3545.29,853.59 3542.71,860.64 3544.8,867.356C3548.83,880.206 3552.74,893.29 3560.22,903.86C3561.48,905.66 3563.03,907.16 3564.54,908.494C3568.81,912.385 3573.28,915.665 3577.86,918.752C3584.43,923.135 3590.61,928.735 3596.97,933.744C3603.53,938.885 3610.11,943.944 3616.66,949.081C3618.96,950.885 3621.28,952.71 3623.45,954.765C3627.49,958.56 3631.32,962.873 3635.47,966.394C3637.63,968.244 3640.31,969.66 3642.75,969.877C3650.17,970.644 3657.64,971.594 3664.92,970.081C3668.11,969.41 3671.53,970.081 3674.81,969.877C3677.71,969.698 3678.31,968.615 3678.09,965.169C3677.95,963.052 3678.36,960.785 3677.86,958.827C3676.28,952.652 3676.85,946.598 3676.75,940.59C3676.63,934.19 3676.39,927.873 3675.27,921.469C3674.12,914.923 3673.23,908.327 3672.03,901.769C3669.78,889.494 3665.55,878.094 3660.8,867.052C3658.63,862.081 3655.71,857.444 3652.57,853.456C3636.95,833.71 3619.56,818.106 3600.06,807.473C3597.07,805.84 3594.12,804.665 3590.93,806.01C3589.48,806.623 3587.37,805.865 3585.73,804.977C3579.61,801.552 3573.65,802.26 3567.78,803.46C3564.28,804.173 3560.81,803.977 3557.32,803.269C3548.86,801.598 3540.48,800.794 3532.11,801.156C3529.98,801.24 3527.9,800.881 3526.14,802.923C3525.45,803.727 3523.93,803.569 3522.77,803.39C3518.09,802.502 3513.36,801.89 3508.72,800.385C3498.31,797.01 3487.97,795.56 3477.76,797.035C3472.08,797.865 3467.53,802.081 3463.95,807.715C3460.17,813.623 3455.89,818.765 3451.04,823.019C3450.28,823.665 3449.37,824.098 3448.46,824.46C3448.22,824.569 3447.66,824.194 3447.45,823.823C3447.23,823.498 3447.15,822.802 3447.24,822.394C3447.39,821.66 3447.68,820.99 3447.98,820.385C3452.02,813.169 3456.09,806.044 3460.03,798.731C3461.79,795.448 3463.74,792.494 3466.41,790.502C3470.16,787.715 3473.86,784.748 3477.61,781.985C3481.2,779.427 3481.86,777.602 3479.91,771.919C3477.81,765.744 3476.84,759.477 3476.27,753.081C3476.2,752.269 3475.99,751.427 3476.08,750.681C3477.2,741.29 3473.21,733.54 3469.69,725.769C3465.48,716.485 3462.16,706.74 3459.85,696.615C3458.8,692.06 3459.15,687.102 3458.97,682.331C3458.81,678.631 3458.76,674.948 3458.77,671.256C3458.76,669.998 3459,668.76 3459.25,667.535C3459.33,667.115 3459.8,666.56 3460.05,666.656C3460.55,666.777 3461.36,667.223 3461.45,667.665C3462.02,670.248 3462.79,672.915 3462.84,675.452C3463,683.523 3465.11,691.331 3466.41,699.198C3467,702.885 3468.69,705.623 3470.87,707.94C3472.84,710.127 3473.64,710.177 3475.41,708.077C3476.22,707.14 3477,706.14 3478.58,704.135C3478.45,706.419 3478.58,707.365 3478.33,708.015C3477.94,709.144 3477.32,710.115 3476.77,711.127C3474.45,715.231 3474.52,719.569 3477.01,724.29C3478.45,726.981 3479.71,729.852 3481.06,732.602C3484.21,729.648 3485.62,726.981 3486.89,721.806C3487.92,717.685 3488.95,713.585 3490.07,709.527C3490.21,708.94 3490.88,708.698 3491.3,708.281C3491.68,709.069 3492.45,709.985 3492.42,710.706C3491.74,722.452 3490.94,734.19 3485.99,743.881C3485.42,744.998 3485.16,746.86 3485.4,748.269C3486.22,753.265 3487.12,758.298 3488.41,763.16C3489.71,767.994 3492.8,770.598 3496.18,771.94C3498.66,772.94 3501.27,773.477 3503.79,773.598C3511.21,773.902 3518.59,773.71 3526.01,774.069C3534.5,774.477 3542.63,772.615 3550.72,770.727C3556.06,769.481 3561.45,769.194 3566.91,769.394C3570.21,769.502 3573.21,768.498 3576.92,768.398C3576.03,766.777 3575.76,765.998 3575.32,765.527C3570.88,760.544 3566.42,755.619 3561.97,750.644C3561.34,749.94 3560.71,749.131 3560.25,748.219C3553.92,736.11 3545.4,727.198 3536.38,719.485C3532.4,716.077 3527.64,713.973 3522.8,713.865C3516.95,713.694 3511.08,713.119 3505.22,712.544C3501.78,712.219 3498.68,710.369 3496.11,706.61C3492.74,701.681 3489.26,696.894 3485.88,691.956C3485.4,691.248 3485.31,690.044 3485.04,689.06C3485.91,688.806 3486.81,688.144 3487.66,688.315C3490.16,688.869 3491.96,691.248 3493.75,693.66C3495.78,696.423 3497.91,699.04 3500.08,701.648C3502.99,705.119 3506.17,705.781 3509.51,704.435C3511.67,703.535 3513.9,702.79 3516.08,701.981C3518.03,701.227 3518.49,700.206 3517.59,697.285C3514.25,686.573 3513.53,675.869 3514.83,665.106C3515.52,659.223 3514.2,653.456 3512.18,647.906C3511.06,644.831 3510.16,641.815 3511.04,638.669C3511.22,637.985 3511.78,637.048 3512.07,637.119C3512.77,637.31 3513.84,637.96 3514.01,638.635C3516.01,646.644 3517.89,654.727 3519.74,662.777C3519.91,663.51 3519.79,664.398 3519.64,665.131C3518.25,672.494 3519.68,679.835 3521.63,687.115C3523.77,695.173 3527.68,700.844 3533.9,703.031C3538.65,704.71 3542.92,707.785 3546.95,711.869C3549.22,714.177 3551.83,715.831 3554.23,717.915C3555.43,718.956 3556.74,720.085 3557.56,721.552C3568.38,741.648 3582.93,755.823 3597.69,769.673C3603.58,775.198 3609.95,778.09 3616.68,780.156C3632.16,784.99 3646.51,794.106 3658.36,809.865C3666.74,821.023 3674.72,832.844 3680.69,846.74C3682.84,851.727 3685.39,856.481 3688.44,861.144C3688.18,859.523 3688.1,857.819 3687.63,856.302C3686.88,853.769 3685.8,851.365 3684.99,848.831C3683.33,843.74 3682.26,838.827 3683.41,833.323C3684.1,830.106 3683.56,825.948 3682.86,822.369C3681.03,813.194 3678.85,804.098 3676.77,795.002C3676.41,793.444 3676.09,791.74 3675.39,790.431C3672.04,784.11 3669.68,776.844 3665.33,771.465C3661.06,766.24 3657.73,759.656 3652.96,755.115C3645.38,747.906 3637.77,740.902 3629.51,735.16C3624.71,731.835 3620.17,729.698 3614.93,728.781C3606.97,727.402 3598.83,726.019 3591.26,720.448C3589.29,718.969 3587.28,717.615 3585.4,715.99C3579.8,711.256 3574.4,706.094 3568.69,701.756C3564.43,698.49 3559.81,696.494 3554.97,697.315C3552.07,697.777 3549.13,698.61 3544.97,697.394C3550.26,693.06 3555.57,693.66 3561.41,693.265C3559.37,691.065 3557.71,689.815 3556.62,687.969C3554.57,684.519 3552.48,680.902 3551.11,676.973C3549.33,671.919 3547.46,667.115 3544.53,662.969C3544.11,662.369 3543.68,661.635 3543.53,660.902C3543.34,660.256 3543.31,659.256 3543.59,658.79C3543.78,658.477 3544.71,658.623 3545.04,658.981C3547.96,662.21 3550.31,666.081 3551.96,670.619C3552.7,672.627 3553.33,674.644 3554.09,676.627C3556.01,681.635 3558.61,685.877 3562.05,689.252C3564.73,691.848 3567.09,695.306 3569.91,697.348C3576.41,701.981 3582.27,708.16 3588.77,712.785C3595.88,717.819 3603.14,719.881 3610.65,719.844C3611.23,719.831 3611.8,719.702 3612.36,719.548C3612.54,719.523 3612.68,719.306 3613.06,719.019C3611.81,716.256 3609.72,716.11 3607.91,715.415C3603.19,713.623 3598.92,710.477 3594.85,706.502C3592.62,704.281 3590.95,701.54 3589.82,698.19C3589.69,697.802 3589.79,696.915 3589.99,696.798C3590.42,696.615 3591.04,696.494 3591.46,696.798C3591.97,697.144 3592.33,697.985 3592.75,698.548C3598.18,706.452 3604.71,710.948 3612.86,712.519C3611.91,710.706 3611.41,709.252 3610.63,708.185C3604.93,700.281 3600.67,691.015 3596.26,681.973C3592.55,674.356 3592.86,666.619 3596.66,659.99C3597.8,658.031 3599.15,656.315 3600.35,654.394C3602.88,650.402 3605.8,646.86 3606.94,641.452C3607.13,640.506 3607.5,639.531 3607.95,638.777C3608.38,638.069 3609.03,637.635 3609.6,637.073C3610.11,638.177 3611.04,639.352 3611.05,640.377C3611.06,643.256 3611.18,646.419 3610.4,648.844C3608.3,655.34 3607.94,657.106 3615.43,658.631C3619.74,659.51 3624.1,660.398 3627.79,656.965C3628.08,656.71 3629.01,657.131 3629.36,657.61C3629.68,658.081 3629.87,659.148 3629.74,659.752C3629.05,662.91 3627.74,665.202 3624.96,665.106C3619.72,664.877 3614.39,664.794 3609.26,661.877C3607.23,660.71 3605.85,661.01 3604.55,662.79C3604.14,663.331 3603.76,663.848 3603.38,664.398C3602.04,666.452 3600.04,668.352 3600.39,671.427C3600.8,674.669 3601.39,678.094 3603.16,681.144C3606.35,686.619 3609.74,692.135 3612.11,698.177C3615.59,707.077 3621.35,712.256 3626.92,717.915C3628.85,719.881 3630.91,720.71 3633.05,719.569C3641.29,715.173 3650.31,715.581 3659.28,715.594C3659.64,715.594 3660,715.365 3660.8,715.065C3660.17,713.694 3659.75,712.302 3659.01,711.21C3656.66,707.702 3654.13,704.365 3651.81,700.831C3650.29,698.502 3648.66,696.185 3647.69,693.527C3644.89,685.948 3641.18,678.79 3639.96,670.331C3639.39,666.406 3638.07,662.573 3637.14,658.706C3636.83,657.419 3636.31,656.035 3636.36,654.802C3636.83,645.885 3633.25,638.248 3630.48,630.323C3629.87,628.64 3628.7,627.248 3628,625.552C3623.72,615.198 3616.72,609.54 3609.33,604.569C3602.45,599.952 3595.53,600.098 3589.43,603.365C3583.21,606.681 3579.22,614.056 3579.72,623.86C3580.25,633.973 3576.51,640.027 3571.72,645.31C3568.91,648.481 3565.43,650.669 3562.12,652.965C3560.48,654.106 3558.56,654.727 3556.71,655.127C3555.9,655.294 3554.78,654.585 3553.99,653.827C3553.66,653.506 3553.54,651.74 3553.85,651.223C3554.26,650.535 3555.16,650.402 3555.87,650.115C3562.43,647.427 3566.24,640.627 3569.33,633.06C3570.37,630.594 3570.33,627.102 3570.56,624.015C3570.72,622.165 3569.61,621.048 3568.17,621.744C3562.05,624.581 3555.55,625.477 3548.9,625.456C3548.19,625.456 3547.46,625.252 3546.03,623.99C3546.54,623.652 3547.01,623.294 3547.51,622.994C3551.1,620.856 3554.75,618.84 3558.28,616.552C3559.77,615.606 3561.07,614.14 3562.45,612.89C3565.37,610.248 3568.16,607.306 3571.22,604.927C3575.15,601.84 3578.43,597.948 3580.83,592.385C3578.77,590.165 3576.88,587.448 3574.64,585.84C3569.81,582.381 3567.28,576.398 3564.38,570.681C3560.61,563.231 3555.23,558.74 3549.23,556.065C3547.06,555.077 3544.62,556.027 3542.29,555.894C3541.67,555.848 3540.64,555.056 3540.5,554.419C3540.33,553.635 3540.67,552.29 3541.17,551.848C3544.05,549.156 3547.62,548.365 3551.06,549.023C3555.25,549.827 3559.7,550.681 3563.26,555.34C3564.4,556.869 3565.88,557.973 3567.16,559.185C3567.6,558.777 3568.09,558.61 3568.13,558.248C3569.06,551.585 3571.04,545.635 3573.36,539.79C3576.32,532.265 3577.55,523.785 3576.29,514.815C3575.56,509.565 3573.81,504.481 3572.51,499.331C3572.36,498.815 3571.95,498.344 3571.95,497.89C3571.9,496.66 3571.67,495.04 3572.12,494.369C3573,493.035 3574.35,493.731 3575.23,495.056C3576.45,496.927 3577.67,498.91 3578.53,501.023C3580.96,507.052 3581.84,513.481 3581.68,519.835C3581.46,528.506 3581,537.098 3578.01,544.748C3575.61,550.885 3575.24,558.019 3575.42,565.277C3575.53,569.215 3576.71,572.698 3578.95,575.465C3579.94,576.677 3581.75,578.14 3582.61,577.731C3585.26,576.423 3587.1,578.923 3589.26,580.148C3590.94,581.106 3592.74,582.26 3594.39,582.273C3600.36,582.248 3606.09,585.36 3611.96,586.669C3615.07,587.377 3618.18,588.448 3621.3,589.335C3627.79,591.235 3632.96,595.331 3637.3,603.256C3641.5,610.86 3644.39,618.79 3646.63,627.306C3647.22,629.615 3647.94,632.073 3649.11,633.898C3653.26,640.377 3655.85,647.835 3657.88,655.548C3660.05,663.69 3663.68,670.765 3666.94,678.115C3668.31,681.215 3669.93,684.123 3671.53,687.065C3675.99,695.198 3681.06,702.502 3687.46,707.919C3693.73,713.265 3699.87,718.873 3706.13,724.169C3713.66,730.56 3721.88,734.56 3729.84,739.44C3737.87,744.315 3745.16,751.256 3752.12,758.74C3754.02,760.819 3755.45,763.727 3757.07,766.26C3758.44,768.36 3759.8,770.452 3761.15,772.569C3765.79,779.777 3775.29,778.369 3777.81,769.877C3778.71,766.777 3779.6,763.656 3779.14,760.06C3778.47,754.585 3778.85,748.927 3776.05,743.773C3774.76,741.406 3773.53,739.402 3771.31,739.052C3770.92,739.006 3770.54,738.827 3770.13,738.681C3760.86,735.377 3753.07,728.781 3747.01,717.948C3744.65,713.719 3741.64,710.14 3739.22,705.973C3737.33,702.727 3735.39,699.223 3734.31,695.485C3730.6,682.427 3727.15,669.252 3723.81,656.06C3722.03,649.094 3720.4,642.019 3719.22,634.944C3717.58,624.773 3712.85,617.206 3707.58,609.935C3705.13,606.548 3702.5,603.365 3700.17,599.848C3696.67,594.61 3692.09,592.123 3687.69,589.456C3683.26,586.752 3678.61,584.76 3673.97,583.019C3665.43,579.835 3657.13,575.823 3649.36,569.252C3645.2,565.769 3640.62,565.323 3636.12,565.96C3629.46,566.948 3623.27,564.181 3617.33,559.14C3615.49,557.552 3614.2,555.669 3613.38,552.977C3612.3,549.398 3611.13,545.877 3609.78,542.452C3608.93,540.315 3607.69,538.427 3606.73,536.365C3606.47,535.835 3606.37,534.706 3606.61,534.344C3606.9,533.902 3607.79,533.565 3608.09,533.852C3609.37,535.115 3610.63,536.556 3611.71,538.14C3612.21,538.885 3612.44,540.148 3612.59,541.169C3613.77,549.035 3618.41,552.977 3622.83,556.977C3623.84,557.915 3625.6,558.115 3626.76,557.735C3633.22,555.619 3639.91,557.756 3646.75,557.973C3647.69,554.285 3647.12,550.306 3646.14,546.49C3644.13,538.523 3643.95,530.585 3644.22,522.706C3644.4,517.852 3644.02,513.227 3642.31,508.59C3641.58,506.623 3640.92,504.519 3640.58,502.431C3639.59,496.181 3637.64,490.548 3634.55,485.431C3634.15,484.723 3634.18,483.569 3634.01,482.623C3634.91,482.694 3636.09,482.344 3636.65,482.981C3637.89,484.39 3638.81,486.298 3639.87,488.015C3641.47,490.656 3642.85,490.594 3643.7,487.569C3644.18,485.948 3644.39,484.11 3644.44,482.298C3644.55,479.173 3644.41,475.969 3644.51,472.831C3644.54,471.94 3645.04,471.135 3645.52,469.71C3646.29,471.135 3647.04,471.931 3647.17,472.844C3648.09,479.135 3649.44,485.577 3646.19,490.86C3644.36,493.79 3644.26,497.215 3645.38,501.19C3647.01,507.065 3648.37,513.01 3649.94,519.365C3653.82,517.469 3657.42,515.415 3661.73,516.256C3663.01,516.473 3664.45,514.873 3665.61,513.744C3667.12,512.277 3668.36,510.406 3669.79,508.831C3669.98,508.602 3670.56,508.652 3670.83,508.902C3671.11,509.169 3671.44,509.948 3671.37,510.248C3670.78,512.615 3670.18,515.031 3669.38,517.265C3669.08,518.09 3668.22,518.49 3667.68,519.148C3664.52,523.115 3664.69,524.985 3668.96,528.71C3671.73,531.09 3674.7,532.965 3677.5,535.269C3678.04,535.702 3678.63,537.131 3678.53,537.794C3678.4,538.535 3677.56,539.102 3676.95,539.544C3676.66,539.765 3676.15,539.79 3675.82,539.594C3671.12,536.506 3665.81,534.79 3662.81,527.894C3662.27,526.719 3661.68,525.527 3661.01,524.481C3657.93,519.665 3654.21,519.281 3651.44,523.619C3650.91,524.423 3650.71,525.89 3650.68,527.14C3650.61,529.756 3650.88,532.423 3650.75,535.031C3650.26,544.906 3653.32,552.785 3659.28,559.223C3663.68,563.99 3668.29,567.785 3673.76,569.54C3679.78,571.402 3685.51,574.923 3691.2,578.419C3691.76,578.777 3692.34,579.027 3692.93,579.173C3700.02,581.106 3705.23,587.356 3710.13,594.344C3710.57,594.969 3710.95,595.606 3711.41,596.206C3716.41,602.177 3720.71,608.89 3723.86,616.831C3724.01,617.206 3724.48,617.406 3725.07,617.915C3726.61,615.856 3727.56,613.29 3728.35,610.381C3730.02,604.169 3732.2,598.623 3736.25,594.369C3739.99,590.465 3742.78,584.844 3745.66,579.64C3748.2,575.09 3751.33,570.994 3752.28,564.915C3752.55,563.16 3752.9,561.419 3752.87,559.606C3752.87,554.873 3752.8,550.119 3752.57,545.348C3752.37,540.831 3752.19,536.29 3751.52,531.823C3750.26,523.281 3749.58,514.898 3750.94,506.669C3751.36,504.173 3751.27,501.469 3751.6,498.91C3751.71,498.094 3752.46,497.469 3752.9,496.76C3753.33,497.527 3753.98,498.248 3754.09,499.09C3754.31,500.652 3754.44,502.331 3754.25,503.823C3753.39,510.115 3754.48,516.46 3755.27,522.835C3756.33,531.606 3757.45,540.39 3758.16,549.156C3758.56,553.89 3758.06,558.631 3758.02,563.39C3757.99,564.602 3758.16,565.923 3758.27,567.885C3759.83,566.656 3760.87,565.698 3762.02,564.973C3763.81,563.835 3764.41,562.094 3763.77,559.269C3762.81,555.006 3763.81,551.46 3765.62,548.435C3765.91,547.952 3766.69,547.64 3767.12,547.86C3767.48,548.04 3767.9,549.169 3767.88,549.769C3767.79,551.585 3767.41,553.31 3767.31,555.115C3767.31,555.69 3767.87,556.365 3768.16,557.023C3768.63,556.66 3769.38,556.448 3769.52,555.894C3770.16,553.265 3771.17,550.552 3771.04,547.798C3770.74,541.66 3772.97,536.856 3773.83,531.331C3773.91,530.827 3774.69,530.24 3775.12,530.331C3775.58,530.452 3776.31,531.223 3776.41,531.823C3776.92,534.406 3777.66,537.144 3777.55,539.665C3777.34,545.131 3776.91,550.623 3776.03,555.906C3775.61,558.527 3774.36,561.035 3772.95,562.898C3768.86,568.29 3764.57,573.481 3760.19,578.465C3754.42,585.002 3750.01,592.894 3746.9,602.331C3744.89,608.315 3742.52,614.031 3740.26,619.798C3737.34,627.256 3737.24,635.715 3737.61,644.231C3737.71,646.765 3738.77,649.385 3739.62,651.894C3741.53,657.385 3743.32,662.79 3743.9,668.819C3744.26,672.677 3759.01,673.598 3759.61,664.927C3760.01,658.994 3760.6,653.181 3763.17,648.16C3765.88,642.777 3768,636.794 3770.34,631.065C3771.57,628.073 3772.91,625.502 3776.05,626.127C3776.74,626.281 3777.55,625.794 3778.14,625.277C3787.66,616.844 3794.94,605.744 3799.29,591.21C3799.98,588.894 3800.44,586.31 3800.66,583.765C3801.3,576.327 3802.67,569.085 3801.16,561.094C3800.35,556.998 3800.79,552.615 3800.59,548.377C3800.54,546.823 3800.66,544.869 3800.03,543.74C3796.4,537.098 3794.08,529.048 3788.43,524.494C3785.09,521.815 3781.79,518.994 3778.55,516.169C3777.53,515.281 3776.62,514.127 3775.73,512.99C3774.98,512.052 3774.43,510.56 3773.6,510.031C3768.92,507.031 3767.6,500.965 3765.94,495.531C3763.49,487.594 3762.53,479.344 3762.55,471.019C3762.59,466.056 3762.74,461.144 3762.97,456.231C3763.22,451.523 3763.13,446.765 3763.18,442.031C3763.29,427.76 3763.36,413.527 3762.32,399.152C3761.91,393.45 3767.94,387.631 3767.94,387.631C3767.94,387.631 3768.97,385.45 3768.66,386.91C3767.51,392.156 3766.96,397.456 3767.53,403.16C3768.62,414.56 3769.52,425.973 3770.66,439.148C3771.67,436.352 3772.03,434.835 3772.7,433.731C3774.44,430.835 3775.88,426.815 3778.26,425.61C3784.04,422.669 3786.16,416.206 3788.15,409.26C3788.62,407.631 3789.12,405.998 3789.78,404.506C3789.98,404.002 3790.8,403.69 3791.25,403.881C3791.68,404.077 3792.34,405.048 3792.32,405.577C3792.32,407.644 3792.3,409.777 3791.89,411.69C3791.09,415.356 3789.99,418.885 3789.07,422.502C3788.24,425.769 3789.83,429.84 3792.43,430.344C3795.12,430.86 3797.9,431.677 3800.53,430.465C3805.18,428.327 3809.9,426.477 3813.36,421.623C3813.85,420.89 3814.48,420.265 3815.16,419.969C3815.59,419.76 3816.27,420.16 3816.74,420.54C3816.99,420.735 3817.28,421.623 3817.18,421.935C3816.4,424.181 3815.97,427.148 3814.62,428.448C3808.88,433.994 3802.96,439.344 3795.11,439.04C3791.35,438.885 3787.64,438.235 3784.84,433.577C3784.08,432.252 3783.19,432.027 3782.23,432.64C3778.47,435.09 3775.48,438.885 3772.97,443.16C3771.29,445.973 3771.32,450.006 3772.18,453.744C3773.92,461.265 3775.06,469.085 3779.53,475.273C3780.5,476.627 3780.95,478.606 3781.7,480.29C3782.45,481.948 3783.08,483.81 3784.07,485.119C3789.58,492.602 3794.28,501.385 3801.38,506.477C3801.9,506.823 3802.31,507.548 3802.75,508.123C3805.56,511.785 3805.62,511.894 3808.48,509.385C3814.29,504.269 3819.27,497.998 3822.8,489.744C3824.64,485.348 3826.51,480.94 3828.77,476.985C3830.55,473.865 3832.61,470.694 3835.12,468.76C3840.77,464.327 3843.7,457.169 3845.93,449.31C3848.04,441.96 3849.44,434.152 3851.46,426.706C3852.55,422.669 3854.25,419.006 3855.81,415.294C3856.33,414.044 3857.1,412.469 3858.53,413.794C3859.65,414.84 3859.09,416.277 3858.64,417.31C3855.94,423.765 3854.96,431.198 3853.14,438.177C3851.48,444.59 3850.62,451.473 3849.3,458.765C3853.08,458.74 3856.4,459.102 3859.58,458.573C3861.58,458.26 3863.33,456.506 3865.26,455.606C3865.89,455.319 3866.92,455.377 3867.42,455.931C3867.85,456.352 3868.03,457.898 3867.85,458.681C3866.92,462.444 3865.37,465.373 3862.25,466.381C3859.48,467.294 3856.78,468.448 3853.76,467.81C3850.66,467.16 3848.11,468.435 3845.59,470.394C3838.01,476.34 3832.33,484.652 3828.03,494.948C3825.27,501.515 3822.49,508.11 3819.25,514.26C3815.88,520.615 3816.21,527.76 3817.67,535.26C3819.08,542.319 3820.61,549.29 3820.71,556.556C3820.76,559.656 3821.45,562.935 3822.23,565.985C3824,572.831 3826.38,574.31 3830.8,571.485C3832.48,570.394 3834.01,568.927 3835.65,567.773C3837.16,566.765 3838.67,565.698 3840.28,565.035C3854.69,559.269 3866.92,549.081 3877.28,535.052C3880.2,531.09 3882.63,526.719 3883.78,521.156C3884.77,516.194 3885.75,511.185 3886.42,506.094C3887.63,497.035 3890.31,488.99 3893.79,481.502C3895.89,477.035 3897.49,471.977 3899.98,468.04C3903.5,462.502 3905.63,455.606 3909.18,450.19C3912.25,445.494 3913.88,440.027 3913.75,433.323C3913.7,430.152 3913.77,426.969 3914.14,423.906C3914.76,418.585 3915.12,413.24 3917.29,408.506C3919.31,404.085 3920.25,398.656 3921.87,393.852C3922.67,391.581 3923.92,389.66 3925.06,387.69C3925.31,387.256 3924.63,390.084 3925.14,389.95C3925.23,390.863 3926.96,389.227 3926.77,389.985C3926.54,390.873 3925.82,391.498 3925.43,392.348C3922.49,398.56 3920.19,405.144 3920.56,413.24C3920.71,416.985 3920.43,420.34 3918.76,423.473C3917.36,426.102 3918.14,429.923 3918.11,433.398C3918.88,433.323 3919.31,433.452 3919.6,433.277C3922.67,431.344 3925.83,429.685 3928.65,427.319C3930.35,425.948 3931.73,423.652 3932.78,421.36C3935.31,415.798 3937.66,410.044 3938.7,403.331C3938.84,402.527 3939.43,401.927 3940.43,400.148C3940.8,404.819 3940.34,407.752 3939.55,410.535C3938.01,416.023 3936.37,421.431 3934.86,426.935C3933.81,430.765 3931.92,433.285 3929.04,434.49C3927.44,435.198 3925.88,436.219 3924.22,436.685C3920.75,437.635 3918.41,440.385 3917.36,444.71C3914.92,454.815 3910.45,463.21 3906.94,472.398C3905.5,476.231 3903.62,479.869 3902.88,484.015C3901.81,489.948 3900.47,495.952 3900.96,502.465C3901.5,509.385 3902.1,516.302 3902.71,523.223C3902.8,524.269 3903.26,525.381 3903.16,526.381C3902.14,536.59 3904.79,546.306 3907.61,556.015C3909.62,562.86 3911.65,569.723 3913.5,576.64C3914.24,579.44 3914.42,582.415 3914.97,585.335C3915.22,586.744 3916.58,587.485 3917.33,586.585C3919.1,584.398 3920.93,582.248 3922.42,579.715C3927.72,570.631 3934.56,564.544 3942.92,561.156C3946.72,559.631 3950.56,558.069 3954.13,555.906C3957.01,554.177 3959.73,551.823 3962.11,549.106C3963.42,547.619 3964.07,544.927 3964.72,542.585C3965.45,539.99 3965.72,537.085 3966.38,534.406C3968.87,524.352 3973.21,515.86 3978.54,508.544C3981.11,505.023 3981.33,501.985 3979.56,497.565C3978.78,495.669 3978.41,493.552 3977.87,491.531C3977.83,491.352 3978.05,491.102 3978.18,490.815C3980.31,491.544 3980.41,494.356 3981.34,496.29C3982.66,499.065 3984.27,499.052 3985.3,496.269C3986.6,492.735 3986.79,488.844 3986.32,484.806C3985.27,476.169 3982.54,468.135 3979.87,460.085C3978.2,455.127 3976.35,450.273 3974.62,445.31C3974.51,444.985 3974.72,444.206 3974.94,443.977C3975.15,443.798 3975.76,443.956 3975.97,444.256C3976.56,445.035 3977.07,445.89 3977.53,446.802C3980.28,452.365 3983.27,457.769 3985.67,463.548C3987.25,467.327 3988.07,471.644 3989.06,475.81C3989.69,478.381 3990.05,481.015 3991.98,483.319C3995.57,479.735 3998.45,475.369 4000.37,469.806C4000.82,468.435 4001.03,466.835 4001.65,465.598C4001.97,464.965 4003.12,464.302 4003.44,464.615C4004.17,465.323 4004.88,466.535 4005.09,467.69C4005.24,468.544 4004.7,469.598 4004.4,470.523C4002.81,475.427 4000.9,480.027 3998.21,483.894C3996.43,486.498 3995.4,489.59 3994.47,493.023C3992.17,501.385 3989.51,509.515 3986.72,517.502C3985.63,520.64 3985.24,523.665 3985.46,527.244C3985.69,530.935 3985.56,534.656 3985.27,538.248C3984.83,543.26 3983.35,547.64 3980.58,550.885C3979.04,552.723 3977.6,554.694 3975.97,556.365C3967.68,564.748 3960.22,574.523 3950.66,580.735C3943.49,585.36 3938.79,593.144 3935.51,602.969C3933.7,608.448 3931.04,613.406 3928.43,618.227C3924.6,625.31 3920.37,631.99 3916.44,639.006C3911.77,647.427 3909.37,657.24 3910.15,668.506C3910.53,673.877 3912.1,679.102 3914.59,683.69C3916.89,687.931 3919.68,691.74 3922.04,695.931C3924.78,700.831 3927.3,705.948 3929.93,710.948C3931,712.952 3932.09,714.923 3933.62,717.719C3934.18,715.881 3934.57,714.86 3934.82,713.731C3936.78,704.856 3939.37,696.473 3942.94,688.71C3944.24,685.948 3945.26,682.91 3946.26,679.919C3947.01,677.577 3947.62,675.185 3949.42,673.91C3949.88,673.565 3950.41,673.023 3950.6,672.36C3952.84,664.602 3956.38,657.502 3955.72,648.231C3955.51,645.31 3955.32,642.356 3955.19,639.448C3954.84,631.365 3955.5,623.677 3958.28,616.785C3959.26,614.356 3959.85,611.619 3960.64,609.048C3963.8,598.635 3969.18,590.827 3975.77,584.506C3980.61,579.873 3985.71,575.702 3990.6,571.148C3996.13,566.019 4000.07,559.244 4000.72,549.552C4001.43,539.027 4005.72,531.569 4010.56,524.556C4011.01,523.881 4011.9,523.44 4012.58,523.594C4013.14,523.715 4013.67,524.844 4014.15,525.552C4014.25,525.685 4014.2,526.115 4014.11,526.31C4011.49,532.065 4011.51,539.148 4010.16,545.527C4009.52,548.448 4008.67,551.294 4007.85,554.115C4007.29,555.977 4006.21,557.648 4006.02,559.631C4004.99,569.144 4000.26,574.619 3995.11,579.64C3993.18,581.515 3991.18,583.269 3989.08,585.169C3997.25,591.715 4007.93,592.519 4014.79,587.356C4017.57,585.285 4020.31,583.16 4023.16,581.31C4023.88,580.819 4025.19,580.806 4025.87,581.381C4027.27,582.669 4026.34,584.244 4025.9,585.565C4025.7,586.248 4025.36,587.006 4024.9,587.294C4019.84,590.485 4016.62,597.506 4010.66,598.815C4003.19,604.773 3995.04,601.877 3986.87,598.535C3985.91,598.14 3984.98,597.565 3984.02,597.227C3980.88,596.073 3978.35,596.806 3976.13,599.823C3973.28,603.702 3971.88,608.71 3970.47,613.623C3968.14,621.756 3967.26,630.573 3967.41,639.64C3967.57,648.71 3966.91,657.469 3965.22,665.948C3963.34,675.523 3963.75,675.99 3971.46,675.81C3976.67,675.69 3981.96,675.869 3987.26,676.36C3992.26,676.831 3996.78,675.835 4001.19,673.144C4007.92,669.023 4013.68,663.244 4019.52,657.444C4025.03,651.99 4030.58,646.823 4037.61,644.365C4042.1,642.777 4046.14,639.14 4049.92,635.594C4060.08,626.127 4065.86,612.219 4069.42,596.098C4071.08,588.59 4069.56,580.952 4068.56,573.373C4068.41,572.219 4067.56,570.885 4066.8,570.081C4063.37,566.527 4061.38,561.719 4059.65,556.66C4059.12,555.173 4058.64,553.598 4057.98,552.219C4054.99,545.94 4055.2,539.919 4057.14,534.006C4058.35,530.31 4059.51,526.631 4060.65,523.065C4062.83,523.569 4062.5,525.502 4062.6,526.873C4063,532.71 4063.34,538.548 4063.61,544.41C4063.93,551.952 4066.55,557.41 4071.52,561.865C4079.36,568.902 4077.68,568.148 4083.62,561.144C4087.38,556.735 4090.43,551.294 4093.86,546.394C4095.38,544.169 4096.8,541.84 4098.56,540.04C4102.09,536.41 4104.45,532.052 4104.8,525.527C4105.01,521.36 4105.98,517.419 4105.46,513.048C4105.34,512.052 4105.45,510.84 4105.82,510.081C4106.19,509.385 4107.02,508.973 4107.7,508.927C4108.02,508.902 4108.78,509.948 4108.85,510.527C4109.17,513.144 4109.55,515.86 4109.47,518.44C4109.33,521.565 4108.83,524.615 4108.36,527.619C4107.82,530.981 4107.81,534.285 4109.14,538.006C4112.74,537.048 4115.2,533.985 4117.98,531.594C4120,529.852 4121.66,529.444 4121.95,530.727C4122.52,533.156 4120.98,533.84 4120.07,534.923C4117.58,537.923 4115.07,540.894 4112.46,543.677C4111.02,545.177 4109.42,546.585 4107.7,547.46C4103.31,549.706 4100.03,553.565 4097.5,558.694C4094.91,563.919 4092.3,569.098 4089.73,574.323C4089.3,575.123 4088.6,576.065 4088.66,576.902C4089.12,582.044 4086.43,584.852 4085.03,588.602C4082.15,596.302 4079.26,603.956 4076.54,611.74C4075.8,613.935 4074.9,616.315 4075.91,619.894C4076.79,619.56 4077.66,619.448 4078.4,618.956C4083.42,615.581 4088.44,612.315 4093.74,609.623C4097.53,607.715 4100.75,603.99 4103.98,600.677C4105.26,599.415 4106.22,597.194 4106.7,595.077C4107.92,589.506 4110.4,585.169 4112.87,580.769C4120.02,568.173 4128.76,557.735 4137.44,547.223C4137.95,546.598 4138.75,546.285 4139.48,546.152C4139.96,546.081 4140.82,546.394 4141.05,546.873C4141.44,547.677 4141.77,548.977 4141.58,549.756C4141.27,550.885 4140.55,551.773 4139.93,552.66C4138.43,554.86 4136.82,556.94 4135.38,559.21C4130.32,567.135 4126.61,576.473 4121.9,584.748C4120.55,587.14 4119.46,589.79 4119.62,593.744C4121.83,594.223 4124.07,595.365 4126.03,594.981C4129.05,594.44 4131.88,595.74 4134.77,596.565C4137.27,597.277 4139.93,597.744 4142.23,599.281C4146.29,601.998 4150.25,604.115 4154.64,604.073C4155.76,604.052 4156.65,606.752 4155.9,607.844C4154.94,609.285 4153.81,610.802 4152.47,611.402C4149.38,612.794 4145.97,612.735 4142.68,611.09C4137.05,608.315 4131.5,606.935 4125.9,608.735C4124.83,609.081 4123.57,608.915 4122.42,608.844C4116.36,608.685 4111.16,611.223 4106.48,615.573C4105.41,616.552 4104.17,617.144 4103.04,617.935C4098.9,620.781 4094.73,623.548 4090.63,626.523C4088.02,628.398 4085.61,630.752 4082.97,632.64C4076.34,637.369 4070.58,643.665 4064.7,649.777C4063.4,651.14 4061.89,652.327 4060.32,652.952C4056.12,654.656 4052.23,657.06 4048.38,659.69C4043.22,663.223 4037.88,666.319 4032.54,669.444C4027.84,672.16 4024.11,676.665 4020.31,681.023C4019.36,682.115 4018.71,683.702 4017.62,685.577C4019.07,686.394 4020.07,687.306 4021.08,687.51C4029.98,689.169 4038.62,692.977 4047.18,697.156C4055.8,701.385 4064.2,702.21 4072.64,700.123C4073.75,699.86 4074.9,699.56 4076.03,699.785C4076.62,699.894 4077.52,700.998 4077.69,701.827C4077.84,702.623 4077.38,703.765 4076.95,704.41C4076.45,705.081 4075.66,705.565 4074.94,705.694C4071.48,706.115 4068.02,706.431 4064.54,706.765C4061.88,707.019 4059.2,707.235 4056.52,707.423C4055.94,707.51 4055.36,707.606 4054.79,707.423C4046.67,704.66 4038.46,703.94 4030.3,700.844C4023.03,698.081 4015.47,697.315 4008.11,698.585C4004.11,699.248 4000.06,699.248 3995.94,698.981C3990.89,698.644 3985.91,699.798 3980.89,700.327C3979.95,700.448 3979.04,700.927 3978.07,700.94C3970.27,701.094 3963.58,704.602 3957.34,709.985C3953.49,713.323 3951.16,717.373 3951.68,724.327C3951.93,727.956 3951.64,731.69 3951.33,735.294C3950.08,750.106 3951.75,764.877 3955.51,779.548C3958.09,789.59 3961.06,799.498 3963.8,809.54C3964.58,812.34 3965.33,815.223 3965.83,818.09C3966.89,824.231 3968.92,829.877 3971.6,835.773C3972.57,835.415 3973.66,835.223 3974.62,834.644C3980.94,831.102 3987.9,830.215 3994.61,828.506C4002.58,826.477 4009.61,821.769 4016.74,817.277C4018.62,816.098 4019.56,813.852 4020.02,811.452C4021.45,804.002 4022.21,796.352 4021.38,788.281C4020.61,780.581 4019.82,772.856 4019.22,765.169C4018.6,757.444 4018.28,749.706 4020.13,742.548C4021,739.235 4019.84,736.277 4018.79,733.335C4017.53,729.781 4016.4,726.273 4016.42,722.44C4016.42,721.698 4016.55,720.902 4016.78,720.231C4016.91,719.844 4017.29,719.452 4017.62,719.415C4017.91,719.402 4018.47,719.798 4018.57,720.135C4019.59,723.44 4020.53,726.777 4021.58,730.044C4021.89,731.006 4022.41,731.894 4023.11,733.348C4024.04,731.677 4024.93,730.452 4025.51,728.965C4027.31,724.531 4028.95,719.977 4030.73,715.523C4030.93,715.044 4031.72,714.631 4032.1,714.848C4032.53,715.065 4032.99,715.99 4033.08,716.64C4033.22,717.685 4033.25,718.873 4032.99,719.748C4031.59,724.685 4031.19,730.19 4028.76,734.61C4027.02,737.744 4026.04,741.781 4024.95,745.552C4024.12,748.448 4023.95,751.569 4025.45,755.244C4026.26,755.019 4027.17,754.923 4027.99,754.573C4033.18,752.198 4038.28,749.66 4043.52,747.44C4049.83,744.773 4054.95,740.06 4058.76,732.965C4059.31,731.965 4059.8,730.848 4060.47,730.044C4060.82,729.698 4061.76,729.648 4062.05,729.981C4062.58,730.644 4063.16,731.869 4063.07,732.59C4062.87,734.094 4062.34,735.498 4061.81,736.794C4059.27,743.26 4055.31,747.619 4050.48,750.752C4045.44,754.056 4040.52,757.598 4035.61,761.231C4028.98,766.115 4027.41,771.173 4028.97,781.781C4029.56,785.698 4030.21,789.59 4030.79,793.348C4031.66,793.456 4032.18,793.719 4032.39,793.506C4038.6,785.998 4046.62,782.731 4054.31,778.631C4055.52,777.985 4056.8,777.527 4058.08,777.073C4063.84,774.84 4068.78,771.21 4072.12,764.302C4075.19,758.031 4078.59,752.06 4081.96,746.106C4083.97,742.502 4086.03,738.956 4088.33,735.69C4089.96,733.36 4090.71,730.935 4090.67,727.485C4090.56,720.581 4089.84,713.731 4088.88,706.919C4088.15,701.981 4088.83,697.494 4089.78,693.048C4089.93,692.365 4090.22,691.44 4090.67,691.248C4091.44,690.815 4092.41,690.573 4093.26,690.835C4093.61,690.956 4094.18,692.89 4093.97,693.506C4092.15,698.885 4092.93,704.76 4093.48,710.585C4094.01,716.11 4094.45,721.623 4094.96,727.606C4100.18,725.36 4103.17,720.065 4105.97,714.502C4106.27,713.902 4106.49,713.169 4106.7,712.481C4110.32,700.519 4116.57,691.485 4122.96,682.369C4129.06,673.627 4136.47,667.606 4143.88,661.419C4145.43,660.11 4147.26,659.269 4149.01,658.419C4149.41,658.19 4150.55,658.74 4150.6,659.019C4150.72,659.956 4150.76,661.31 4150.38,661.769C4149.01,663.427 4147.59,665.156 4145.92,666.202C4139.52,670.177 4134.45,676.352 4129.43,682.706C4125.25,688.04 4121.11,693.373 4117.83,699.86C4116.35,702.79 4115,705.756 4115.21,710.26C4119.14,712.219 4122.82,712.927 4126.81,710.79C4131.67,708.231 4136.94,706.74 4142.07,704.952C4142.85,704.652 4143.87,705.156 4145.76,705.431C4144.43,706.969 4143.89,708.027 4143.13,708.41C4135.02,712.41 4127.56,718.356 4118.65,719.99C4116.37,720.385 4114.28,721.419 4111.81,720.69C4110.76,720.36 4109.32,720.69 4108.61,721.527C4105.11,725.635 4101.72,729.89 4098.45,734.298C4093.95,740.34 4090.57,747.51 4087.93,755.435C4087.15,757.731 4086.03,759.76 4084.96,761.815C4082.18,767.148 4080,772.902 4078.61,779.548C4080.23,782.227 4082.42,782.898 4084.47,783.51C4088.38,784.627 4092.23,785.048 4096.07,783.715C4101.01,781.96 4106.13,780.94 4111.16,779.498C4117.53,777.744 4123.49,774.681 4129.35,771.306C4135.75,767.631 4142.25,764.277 4148.77,760.965C4150.57,760.06 4152.2,759.16 4153.32,756.94C4156.03,751.569 4160.09,748.244 4164.51,746.152C4173.39,741.973 4182.52,738.49 4191.54,734.731C4192.08,734.498 4192.67,734.227 4193.23,734.344C4195.36,734.802 4197.56,732.073 4199.61,735.485C4198.66,738.719 4196.08,737.673 4194.26,738.631C4193.73,738.898 4193.19,739.177 4192.66,739.415C4186.91,741.885 4181.19,744.46 4175.39,746.802C4170.26,748.894 4165.63,751.931 4162.07,757.327C4160.48,759.74 4158.45,761.585 4156.58,763.631C4155.01,765.323 4153.38,766.935 4151.82,768.544C4152.83,770.91 4154.13,770.24 4155.12,770.24C4160.39,770.202 4165.52,769.565 4170.46,767.39C4178.39,763.869 4186.82,764.89 4195.3,767.148C4195.79,767.256 4196.25,768.065 4197.32,769.144C4195.3,769.902 4193.78,770.81 4192.2,771.019C4188.74,771.369 4185.2,771.148 4181.77,771.548C4178.91,771.856 4176.06,772.544 4173.27,773.419C4168.28,774.935 4163.43,777.06 4158.36,778.26C4154.43,779.173 4150.32,779.356 4146.16,777.36C4142.82,775.748 4139.65,776.148 4136.03,777.806C4137.4,779.269 4138.33,780.156 4139.2,781.181C4142.01,784.652 4145.11,785.673 4148.63,785.202C4151.48,784.831 4154.45,785.131 4157.38,785.277C4157.77,785.31 4158.23,786.273 4158.63,786.79C4158.28,787.269 4158.02,788.098 4157.58,788.194C4153.07,789.156 4148.6,790.56 4143.76,789.431C4141.33,788.881 4139.22,787.969 4137.21,785.59C4132.97,780.627 4128.44,778.956 4123.59,782.165C4120.08,784.494 4116.53,786.969 4112.72,788.377C4105.61,790.944 4098.33,793.06 4091.03,794.86C4088.05,795.569 4084.82,795.26 4081.71,794.873C4073.94,793.898 4066.63,795.127 4059.77,799.006C4056.33,800.94 4052.41,801.419 4049.26,804.352C4044.66,808.627 4040.24,813.023 4037.72,820.519C4040.19,821.406 4042.48,822.056 4044.68,823.09C4046.78,824.052 4048.78,825.565 4050.85,826.681C4055.17,829.01 4059.5,831.39 4063.88,833.54C4067.49,835.344 4070.98,835.04 4073.99,832.685C4077.05,830.31 4080.05,827.652 4082.7,824.581C4088.74,817.469 4095.23,811.327 4103,807.631C4110.68,803.977 4118.39,801.081 4127.18,802.948C4133.01,804.173 4138.9,803.727 4144.76,804.435C4150.05,805.06 4155.36,806.431 4160.63,807.115C4168.15,808.085 4175.24,805.694 4182.51,804.773C4188.26,804.04 4192.45,799.198 4197.58,796.856C4205.61,793.177 4213.48,789.023 4222.39,788.977C4226.27,788.952 4230.11,788.473 4233.98,788.377C4235.31,788.365 4236.77,788.569 4238.07,789.144C4244.03,791.835 4249.79,791.344 4255.52,790.344C4256.31,790.215 4257.06,790.023 4257.84,789.948L4253.34,796.894C4248.27,797.798 4243.1,797.751 4237.82,796.281C4230.31,794.248 4223.3,796.065 4216.78,799.256C4210.63,802.285 4205.04,806.935 4199.23,811.006C4198.28,811.665 4197.52,812.915 4196.76,813.96C4195.98,815.052 4196.1,816.423 4196.95,817.469C4203.55,825.565 4210.14,833.66 4217.62,840.156C4219.48,841.783 4221.39,842.706 4223.43,843.033L4218.82,850.16C4215.57,848.752 4212.65,846.153 4210,842.931C4206.13,838.273 4202.05,834.152 4197.32,831.173C4194.43,829.348 4191.79,826.323 4189.23,823.569C4187.11,821.31 4185.27,820.34 4182.73,821.469C4176.6,824.052 4170.24,825.794 4164.17,828.544C4157.44,831.631 4150.15,831.331 4143.19,832.927C4137.71,830.415 4131.68,830.91 4126.72,825.815C4123.2,822.177 4119.53,821.827 4115.98,822.815C4111.32,824.052 4106.98,826.323 4103.58,831.052C4100.89,834.802 4097.68,837.84 4094.76,841.323C4092.72,843.785 4092.51,845.623 4094.18,848.94C4095.19,850.973 4096.52,853.277 4098.05,854.152C4103,857.01 4106.95,862.081 4111.38,866.069C4114.97,869.302 4118.62,872.448 4122.32,875.415C4125.14,877.698 4128.02,879.86 4131.35,879.452C4132.09,879.369 4132.94,879.69 4133.65,880.098C4136.27,881.66 4138.72,881.252 4140.97,879.906C4144.12,878.081 4147.28,878.406 4150.62,880.352C4153.42,881.998 4156.26,883.452 4159.08,885.015C4163.45,887.39 4164.38,887.102 4166.81,882.26C4167.49,880.877 4167.64,878.56 4169.56,879.402C4171.38,880.173 4172.09,881.685 4172.37,885.073C4172.44,886.044 4172.41,887.065 4172.4,888.173C4177.88,890.956 4182.12,887.881 4186.56,886.081C4189.79,881.764 4193.88,881.739 4198.06,882.178L4186.45,900.086C4185.26,898.211 4183.7,897.465 4181.93,898.54C4178.61,900.615 4174.94,900.773 4171.34,901.515C4167.94,902.215 4164.88,901.59 4161.76,898.623C4159.94,896.881 4157.8,895.798 4155.78,894.515C4152.13,892.135 4148.91,891.377 4145.51,894.91C4141.77,898.827 4136.77,899.115 4131.51,898.344C4132.8,905.169 4136.76,908.352 4140.37,911.76C4142.21,913.502 4144.34,914.598 4146.35,915.977C4147.26,916.615 4148.34,917.023 4148.96,917.96C4149.57,918.873 4150.02,920.46 4149.91,921.531C4149.77,923.127 4148.63,923.04 4147.61,922.598C4142.51,920.365 4137.88,916.594 4133.96,911.677C4130.68,907.51 4127.88,902.515 4125.19,897.602C4119.38,886.944 4112.22,878.981 4103.31,873.877C4099.23,871.535 4095.23,868.71 4091.19,866.24C4090.09,865.552 4088.9,864.915 4087.76,864.665C4076.25,862.223 4065.41,855.619 4054.6,849.385C4046.93,844.99 4039.73,844.027 4032.11,845.565C4025.1,846.981 4018.18,848.46 4011.62,851.823C4008.31,853.515 4004.63,854.285 4001.03,854.96C3990.61,856.902 3984.7,865.227 3982.01,878.427C3981.36,881.635 3980.41,884.665 3979.39,887.665C3978.13,891.306 3977.21,895.044 3976.41,899.052C3975.48,903.835 3973.05,907.835 3971.36,912.244C3970.62,914.202 3969.6,916.244 3969.53,918.419C3969.3,925.84 3966.52,931.594 3964.46,937.769C3963.63,940.327 3962.28,942.456 3961.21,944.798C3959.41,948.76 3957.01,951.581 3953.78,953.469C3946.97,957.54 3941.95,964.46 3937.68,972.506C3934.33,978.802 3931.41,985.494 3927.88,991.669C3922.77,1000.67 3919.65,1011.35 3919.7,1023.73C3919.71,1025.77 3919.15,1027.71 3918.91,1029.73C3917.53,1041.25 3916.33,1052.86 3913.43,1063.77C3912.83,1066.01 3912.32,1068.63 3913.44,1072.18C3916.48,1068.56 3919.4,1065.48 3921.97,1061.96C3929.67,1051.41 3939.47,1045.12 3949.44,1039.27C3951.93,1037.78 3954.63,1036.24 3957.81,1037.72C3958.5,1038.02 3959.34,1037.7 3960.09,1037.44C3962.78,1036.63 3962.99,1030.55 3966.88,1032.17C3969.41,1030.52 3970.25,1027.08 3971.41,1023.88C3977.07,1008.35 3985.06,995.777 3996.41,987.556C3996.91,987.198 3997.43,986.898 3997.9,986.515C4004.25,981.181 4004.95,974.031 3999.78,965.219C3996.55,959.702 3993.55,954.165 3991.67,947.619C3990.71,944.185 3990.01,940.927 3990.31,937.423C3990.58,934.056 3990.54,930.56 3991.01,927.285C3991.45,924.29 3992.1,921.215 3993.23,918.694C3996.39,911.573 3999.85,904.748 4003.22,897.806C4003.4,897.423 4003.81,897.277 4004.7,896.581C4006.68,901.744 4006.23,906.056 4004.99,910.081C4004.05,913.119 4002.66,915.823 4001.57,918.752C4000.5,921.685 3999.43,924.677 3998.59,927.76C3997.5,931.702 3998.1,935.415 4000.72,938.86C4001.26,938.535 4001.92,938.415 4002.19,937.902C4005.04,932.569 4009.17,930.006 4013.85,928.156C4020.23,925.673 4025.33,920.952 4027.03,911.548C4027.27,910.298 4027.91,908.965 4029.05,909.698C4029.83,910.19 4030.81,911.619 4030.86,912.619C4030.99,914.644 4030.71,916.735 4030.31,918.656C4029.99,920.29 4029.25,921.735 4028.43,923.981C4034.31,926.165 4039.65,928.34 4045.03,930.006C4047.35,930.756 4049.69,930.273 4051.65,928.41C4052.39,927.715 4053.22,926.956 4054.12,926.777C4054.75,926.631 4055.78,927.21 4056.18,927.898C4056.56,928.556 4056.7,930.273 4056.35,930.706C4053.49,934.394 4050.43,937.648 4045.71,935.569C4041.49,933.698 4037.26,931.894 4033.08,929.877C4029.08,927.919 4025.41,927.51 4021.95,930.51C4020.78,931.581 4019.18,931.873 4017.72,932.423C4015.38,933.335 4012.95,933.985 4010.66,935.102C4004.4,938.131 4004.03,945.29 4006.68,953.227C4008.09,957.456 4010.44,961.252 4011.88,965.481C4014.7,973.577 4019.56,978.01 4025.15,981.915C4032.05,986.777 4038.74,992.173 4045.91,996.148C4049.06,997.902 4051.88,1001 4054.89,1003.35C4058.26,1006.03 4061.66,1008.59 4065.07,1011.09C4067.6,1013 4070.18,1014.09 4073.05,1014.14C4075.52,1014.17 4078.09,1015.5 4080.61,1016.29C4086.6,1018.24 4091.36,1015.97 4095.08,1010.38C4096.81,1007.77 4098.48,1005.02 4099.87,1002.07C4101.37,998.815 4102.83,995.702 4105.65,994.285C4107.08,993.565 4107.48,991.594 4107.19,989.744C4106.51,985.54 4106.12,981.073 4104.61,977.29C4099.97,965.623 4098.95,953.494 4098.31,941.24C4098.28,940.46 4098.21,939.573 4098.41,938.885C4098.76,937.865 4099.23,936.219 4099.77,936.198C4100.98,936.135 4101.15,937.756 4101.23,939.173C4101.6,944.748 4102.01,950.31 4102.37,955.894C4102.88,963.198 4104.7,970.056 4107.31,976.785C4109.12,981.385 4110.42,986.26 4111.95,991.127C4120.45,990.923 4124.14,985.935 4124.16,974.44C4124.16,973.169 4124.29,971.86 4124.47,970.619C4124.52,970.323 4125.09,970.094 4125.43,970.131C4125.76,970.19 4126.27,970.573 4126.38,970.935C4128.79,979.802 4128.29,987.715 4123.98,994.344C4122.89,996.027 4121.91,997.865 4120.75,999.44C4119.88,1000.62 4118.84,1001.66 4117.76,1002.49C4115.17,1004.51 4112.48,1006.22 4109.91,1008.27C4108.02,1009.77 4107.93,1012.77 4109.92,1014.85C4110.35,1015.3 4110.77,1015.75 4111.2,1016.19L4107.03,1022.62C4105.02,1021.74 4102.98,1021.93 4100.85,1023.18C4097.76,1024.95 4094.56,1026.46 4091.34,1027.93C4081.2,1032.51 4071.16,1029.83 4061.26,1022.47C4050.99,1014.87 4040.57,1007.72 4030.63,999.39C4021.91,992.073 4009.35,996.798 4005.1,1003.97C3998.68,1014.78 3993.18,1026.37 3990.43,1040.28C3989.45,1045.13 3990.76,1048.05 3994.55,1048.82C3997.27,1049.37 4000.16,1050.24 4002.69,1049.59C4007.51,1048.37 4012.33,1049.37 4017.19,1049.95C4021.3,1050.45 4025.43,1050.71 4029.53,1051.49C4031.63,1051.87 4033.8,1052.91 4035.81,1054.15C4044.55,1059.41 4053.24,1064.83 4061.92,1070.3C4065.41,1072.46 4068.89,1072.34 4072.39,1072.21C4073.25,1072.17 4074.12,1072.12 4074.98,1072.08L4068.83,1081.57C4064.97,1080.48 4061.14,1078.1 4057.33,1076.3C4047.85,1071.91 4049.37,1074.53 4049.92,1083.55C4050.06,1086.2 4050.45,1088.88 4050.97,1091.49C4051.8,1095.61 4053.29,1099.1 4055.92,1101.47L4050.5,1109.85C4048.05,1105.8 4045.65,1101.69 4043.3,1097.57C4041.43,1094.29 4040.04,1090.42 4038.82,1086.66C4038.01,1084.24 4037.27,1081.27 4037.58,1078.92C4038.11,1074.6 4036.35,1072.18 4034.07,1070.2C4029.22,1066.04 4024.25,1062.94 4018.53,1061.82C4012.02,1060.56 4005.58,1059.93 3999.19,1060.11C3993.8,1060.27 3988.53,1061.82 3983.21,1062.6C3980.54,1063.02 3977.83,1063.02 3975.12,1063.31C3973.61,1063.45 3971.99,1063.45 3970.56,1064.05C3962.62,1067.38 3954.84,1071.18 3947.97,1077.29C3947.2,1077.97 3946.35,1078.59 3945.45,1078.93C3937.61,1082.13 3930.47,1087.09 3923.78,1092.96C3916.26,1099.57 3911.64,1109.62 3908.25,1120.87C3907.9,1122 3907.68,1123.41 3907.83,1124.66C3908.25,1127.84 3907.81,1130.24 3905.96,1132.17C3905.2,1132.94 3905.05,1134.87 3904.84,1136.37C3904.24,1140.95 3903.69,1145.55 3903.22,1150.18C3902.07,1161.28 3899.76,1171.92 3899.3,1183.24C3899.15,1186.9 3898.37,1190.42 3897.83,1193.93C3896.38,1203.58 3895.26,1213.3 3895.2,1223.37C3895.19,1229.53 3895.84,1235.54 3897.38,1241.57C3900.99,1255.82 3904.25,1270.18 3909.52,1283.77C3911.11,1287.86 3919.42,1306.35 3921,1310.45ZM3824.98,748.906C3822.93,748.11 3822.01,749.181 3821.91,751.894C3821.76,756.315 3821.68,760.785 3821.68,765.265C3821.67,766.79 3821.86,768.448 3822.24,769.923C3824.33,778.09 3825.08,786.202 3824.11,794.285C3823.5,799.294 3824.12,804.302 3824.96,809.315C3825.83,814.527 3827.95,818.802 3831.21,822.19C3836.01,827.198 3840.61,827.319 3844.27,821.827C3847.71,816.627 3850.83,811.031 3850.86,803.065C3850.86,800.773 3851.46,798.502 3851.98,796.327C3853.36,790.635 3853.35,784.627 3852.98,777.477C3852.52,771.415 3849.42,763.498 3845.62,760.16C3839.18,754.54 3832.08,751.644 3824.98,748.906ZM3937.82,784.556C3934.61,773.015 3931.91,761.231 3926.83,750.573C3924.29,745.181 3921.63,739.856 3917.8,735.906C3912.25,730.19 3906.11,725.36 3902.15,717.106C3902.05,716.877 3901.91,716.665 3901.75,716.485C3899.97,714.369 3897.03,714.848 3896.39,717.66C3895.83,720.04 3895.33,722.752 3895.64,725.29C3896.47,732.423 3897.25,739.69 3898.91,746.648C3900.94,755.223 3901.67,764.073 3904.5,772.448C3906.26,777.66 3907.24,783.294 3908.41,788.76C3909.49,793.973 3910.9,799.256 3911.22,804.481C3911.7,812.785 3912.92,820.952 3914.32,829.131C3914.59,830.706 3914.88,832.327 3914.91,833.89C3914.98,843.077 3914.86,852.219 3915,861.431C3915.12,868.831 3915.56,876.281 3915.84,883.669C3917.01,889.819 3918.14,895.823 3920.56,901.456C3921.8,904.327 3923,905.01 3924.88,903.352C3926.44,902.01 3927.96,900.494 3929.22,898.694C3931.78,895.065 3934.13,891.198 3936.59,887.485C3941.13,880.652 3944.31,872.677 3945.29,863.269C3945.99,856.506 3947.18,850.19 3949.3,844.181C3950.62,840.398 3950.6,836.156 3949.66,831.823C3947.43,821.66 3945.18,811.485 3942.93,801.302C3942.76,800.531 3942.44,799.81 3942.22,799.052C3940.74,794.235 3939.18,789.41 3937.82,784.556ZM3728.81,955.773C3733.11,960.494 3737.59,961.206 3742.21,959.39C3744.94,958.369 3747.61,957.144 3750.26,955.76C3754.25,953.706 3757.23,950.285 3758.82,944.685C3760.96,937.106 3761.25,929.048 3760.6,920.71C3759.54,906.923 3758.3,893.131 3757.33,879.319C3756.66,869.769 3756.22,860.219 3757.36,850.898C3757.73,847.869 3757.6,844.615 3757.7,841.494C3758.01,832.819 3755.32,824.594 3753.28,816.365C3751.31,808.352 3748.95,800.41 3746.13,792.769C3743.78,786.369 3740.51,780.556 3735.23,777.49C3730.76,774.885 3726.52,771.485 3722.7,767.077C3719.34,763.231 3715.6,760.435 3711.47,759.006C3702.42,755.823 3694.14,749.444 3686.02,743.16C3680.02,738.548 3673.9,735.44 3667.55,733.144C3661.97,731.11 3656.29,729.769 3650.64,728.206C3648.59,727.644 3642.55,728.531 3639.94,729.769C3641.41,731.21 3642.71,732.531 3644.04,733.744C3651.94,740.952 3659.37,748.894 3665.81,758.54C3666.64,759.76 3667.47,761.073 3668.45,762.044C3675.8,769.265 3681.31,778.369 3685.6,789.023C3687.45,793.648 3689.71,797.973 3690.74,803.065C3691.09,804.748 3692.62,805.398 3693.68,804.552C3694.31,804.04 3694.81,803.281 3695.43,802.706C3702.43,796.04 3710.26,791.448 3719.04,789.565C3720.86,789.169 3722.25,788.206 3722.96,785.877C3723.46,784.231 3723.9,782.49 3724.5,780.977C3725.32,779.065 3727.02,778.573 3728.55,779.619C3730.01,780.64 3730.6,782.956 3729.84,785.169C3729.45,786.298 3728.87,787.294 3728.32,788.29C3727.04,790.744 3725.71,793.119 3723.98,796.327C3726.43,797.852 3728.23,799.21 3730.12,800.065C3731.99,800.952 3733.97,801.24 3735.9,801.89C3736.93,802.215 3737.9,803.019 3737.66,804.635C3737.52,805.456 3736.83,806.394 3736.23,806.585C3734.14,807.269 3732.06,806.623 3729.89,805.456C3726.52,803.606 3723.07,802.044 3719.65,800.481C3717.83,799.677 3716.36,800.244 3714.84,801.694C3709.03,807.269 3704.3,814.26 3699.66,821.385C3698.22,823.606 3697.7,826.356 3697.74,829.265C3697.88,837.169 3697.95,845.094 3700.5,852.915C3701.61,856.41 3702.42,860.11 3703.25,863.74C3706.44,877.635 3707.73,891.727 3709.31,905.819C3710.47,915.931 3712.25,925.948 3716.58,935.123C3718.01,938.14 3719.5,941.144 3720.81,944.294C3722.79,949.01 3725.74,952.398 3728.81,955.773ZM3831.5,601.444C3831.16,602.552 3830.33,603.331 3829.79,604.352C3822.51,617.585 3813.62,629.048 3807.49,643.627C3804.69,650.319 3802.7,657.298 3801.6,664.985C3801.01,669.023 3801.61,672.677 3803.31,676.469C3806.7,684.098 3809.57,692.11 3813.13,699.56C3815.87,705.19 3817.27,712.315 3822.35,715.69C3823.17,719.644 3825.48,720.135 3827.89,720.915C3835.62,723.452 3842.58,728.602 3848.83,735.835C3853.05,740.723 3857.24,745.673 3861.56,750.465C3863.49,752.64 3864.72,752.64 3866.08,750.394C3866.97,748.927 3867.56,746.956 3867.99,745.048C3868.45,742.86 3868.63,740.506 3868.87,738.165C3869.78,729.698 3870.86,721.302 3871.46,712.723C3871.86,706.79 3871.61,700.648 3871.57,694.623C3871.5,676.556 3875.29,660.819 3883.76,648.002C3887.45,642.427 3891.22,636.856 3895.41,631.956C3898.46,628.41 3899.77,623.99 3900.31,618.777C3901.51,607.352 3899.93,596.073 3896.12,585.098C3891.89,572.865 3890.72,560.748 3892.7,548.448C3892.95,546.835 3892.91,545.06 3893.06,542.248C3891.26,543.656 3890.09,544.377 3889.12,545.381C3884.45,550.306 3879.77,555.198 3875.23,560.269C3869.61,566.548 3863.31,571.402 3856.57,575.281C3853.1,577.29 3849.91,579.715 3846.81,582.415C3845.25,583.773 3843.77,585.335 3842.18,586.623C3837.66,590.298 3833.63,594.585 3831.5,601.444ZM3891.86,941.023C3893.58,928.902 3894.27,916.819 3889.48,904.481C3889.02,903.269 3888.87,901.915 3888.49,900.652C3887.67,897.877 3887.11,894.873 3885.89,892.398C3881.83,884.173 3881.19,875.835 3882.39,867.031C3883.03,862.502 3883.05,857.681 3883.06,852.965C3883.07,848.231 3882.8,843.448 3882.5,838.694C3882.13,832.844 3881.38,827.077 3877.95,821.406C3876.55,823.881 3875.29,825.973 3874.15,828.16C3870.84,834.573 3867.11,840.602 3862.3,844.915C3853.48,852.798 3847.95,864.206 3843.54,876.965C3841.82,882.006 3841.82,887.823 3843.03,893.227C3844.8,901.252 3846.66,909.302 3849.45,917.098C3853.21,927.485 3857.2,937.84 3859.23,948.998C3859.56,950.802 3860.26,952.64 3861.05,954.198C3863.78,959.452 3866.55,964.64 3869.44,969.756C3870.83,972.244 3872.34,972.773 3874.14,971.594C3875.29,970.84 3876.38,969.794 3877.34,968.64C3879.14,966.477 3880.68,963.906 3882.55,961.927C3887.51,956.627 3890.63,949.756 3891.86,941.023ZM4327.2,849.859C4327.2,580.8 4108.76,362.359 3839.7,362.359C3570.64,362.359 3352.2,580.8 3352.2,849.859C3352.2,1118.92 3570.64,1337.36 3839.7,1337.36C4108.76,1337.36 4327.2,1118.92 4327.2,849.859ZM4307.41,849.859C4307.41,591.724 4097.84,382.151 3839.7,382.151C3581.57,382.151 3371.99,591.724 3371.99,849.859C3371.99,1107.99 3581.57,1317.57 3839.7,1317.57C4097.84,1317.57 4307.41,1107.99 4307.41,849.859Z" style="fill:rgb(25,25,26);stroke:rgb(25,25,26);stroke-width:1.25px;"></path>
                </g>
            </g>
        </g>
    </g>
        
</svg><style>@media (prefers-color-scheme: light) { :root { filter: none; } }
@media (prefers-color-scheme: dark) { :root { filter: invert(100%); } }
</style></svg>