<svg width="100%" height="100%" viewBox="0 0 1150 1244" version="1.1" xmlns="http://www.w3.org/2000/svg"
    xmlns:xlink="http://www.w3.org/1999/xlink" xml:space="preserve" xmlns:serif="http://www.serif.com/"
    style="fill-rule:evenodd;clip-rule:evenodd;stroke-miterlimit:10;">
    <g transform="matrix(1,0,0,1,-1909.1,-956.21)">
        <g transform="matrix(1,0,0,1,1680.56,923.791)">
            <g id="Thin-Circle" serif:id="Thin Circle" transform="matrix(0,-4.16667,-4.16667,0,762.773,274.09)">
                <circle cx="-112.25" cy="0" r="112.25" style="fill:none;stroke:rgb(228,228,231);stroke-width:1.15px;" />
            </g>
        </g>
        <g transform="matrix(1,0,0,1,1680.56,923.791)">
            <g id="Black" transform="matrix(4.16667,0,0,4.16667,0,0)">
                <g transform="matrix(1,0,0,1,104.809,179.562)">
                    <path
                        d="M0,0.864C-0.988,0.864 -1.917,0.957 -2.396,0.988L-2.396,8.772C-1.167,8.835 -0.18,8.927 1.258,8.927C2.396,8.927 2.935,8.772 3.444,8.525C4.552,7.969 5.51,6.765 5.51,5.035C5.51,2.533 3.954,0.864 0,0.864M-2.396,-7.847L-2.396,-0.556L1.737,-0.556C2.815,-1.329 3.265,-2.719 3.265,-4.356C3.265,-6.859 1.258,-7.847 -2.396,-7.847M5.75,8.649C3.624,10.101 1.977,10.225 -0.569,10.225C-1.647,10.225 -6.499,10.194 -8.325,10.194L-7.786,8.618L-5.031,8.742L-5.031,-7.816L-8.295,-7.816L-7.816,-9.144C-4.881,-9.268 -3.953,-9.361 -2.096,-9.361C3.714,-9.361 6.02,-7.97 6.02,-5.129C6.02,-4.356 5.84,-3.399 5.301,-2.596L2.995,-0.556C6.409,-0.402 8.206,1.667 8.206,4.231C8.206,5.931 7.367,7.537 5.75,8.649"
                        style="fill:rgb(228,228,231);fill-rule:nonzero;" />
                </g>
                <g transform="matrix(1,0,0,1,129.933,170.263)">
                    <path
                        d="M0,19.493L-14.793,19.493L-14.255,17.917L-11.26,18.041L-11.26,1.236L-13.745,1.05L-13.745,0L-5.839,0L-6.378,1.514L-8.595,1.329L-8.595,18.071L-1.587,18.318L0.749,14.581L1.737,15.105L0,19.493Z"
                        style="fill:rgb(228,228,231);fill-rule:nonzero;" />
                </g>
                <g transform="matrix(1,0,0,1,140.593,186.636)">
                    <path
                        d="M0,-13.47L-2.935,-5.376L2.995,-5.376L0,-13.47ZM5.301,3.12L5.301,2.718L5.75,1.915L3.265,-4.634L1.947,-3.924L-3.414,-3.924L-5.42,1.915L-2.935,2.069L-2.935,3.12L-9.493,3.12L-8.983,1.605L-7.187,1.822L-0.809,-14.89L-0.868,-16.064L1.618,-16.59C4.552,-8.557 6.499,-3.584 8.565,1.822L10.781,2.069L10.781,3.12L5.301,3.12Z"
                        style="fill:rgb(228,228,231);fill-rule:nonzero;" />
                </g>
                <g transform="matrix(1,0,0,1,167.965,171.745)">
                    <path
                        d="M0,16.559C-1.288,17.146 -4.553,18.351 -5.811,18.351C-11.051,18.351 -15.273,14.304 -15.273,8.744C-15.273,2.874 -10.752,-1.792 -4.972,-1.792C-2.067,-1.792 0.029,-1.173 0.958,-0.896L0.149,3.43L-0.899,3.275L-0.899,1.267C-1.888,0.619 -3.833,0.093 -6.169,0.093C-7.338,0.093 -8.775,0.248 -9.464,0.619C-11.35,1.639 -12.638,4.017 -12.638,7.168C-12.638,12.234 -9.793,16.312 -4.642,16.312C-3.415,16.312 -2.187,16.188 -1.437,16.065L0.987,12.605L1.946,13.192L0,16.559Z"
                        style="fill:rgb(228,228,231);fill-rule:nonzero;" />
                </g>
                <g transform="matrix(1,0,0,1,184.644,170.263)">
                    <path
                        d="M0,19.493L0,18.411L-6.02,10.874L-7.068,10.874L-7.068,10.503C-4.792,7.816 -2.517,5.097 0.448,1.359L-1.768,1.452L-1.229,0L5.359,0L5.359,1.05L2.844,1.298C1.945,1.73 -1.978,6.363 -4.194,9.02L3.233,18.225L5.6,18.442L5.6,19.493L0,19.493ZM-13.028,19.493L-12.489,17.978L-10.392,18.102L-10.392,1.329L-13.028,1.514L-12.489,0L-5.002,0L-5.002,1.05L-7.728,1.266L-7.728,18.257L-5.002,18.442L-5.002,19.493L-13.028,19.493Z"
                        style="fill:rgb(228,228,231);fill-rule:nonzero;" />
                </g>
            </g>
        </g>
        <g transform="matrix(1,0,0,1,1680.56,923.791)">
            <g id="Meredith" transform="matrix(4.16667,0,0,4.16667,0,0)">
                <g transform="matrix(1,0,0,1,109.787,199.897)">
                    <path
                        d="M0,11.245L0,11.013L0.328,10.39L-0.467,1.229L-3.956,11.066L-4.889,11.066L-8.05,1.728L-9.122,10.532L-7.826,10.64L-7.826,11.245L-11.799,11.245L-11.488,10.371L-10.037,10.514L-8.707,0.73L-10.573,0.873L-10.262,0L-6.772,0L-6.893,0.624L-4.042,9.034L-1.071,0.694L-0.933,0L2.453,0L2.453,0.605L1.019,0.73L1.883,10.496L3.524,10.64L3.524,11.245L0,11.245Z"
                        style="fill:rgb(228,228,231);fill-rule:nonzero;" />
                </g>
                <g transform="matrix(1,0,0,1,122.987,199.826)">
                    <path
                        d="M0,11.316L-8.742,11.316L-8.431,10.407L-6.738,10.478L-6.738,0.801L-8.258,0.695L-8.258,0.071L-0.881,0.071L-0.052,0L-0.587,2.405L-1.192,2.317L-1.192,1.051L-5.2,0.801L-5.2,5.204L-0.45,5.043L-0.726,6.042L-5.2,5.898L-5.2,10.496L-0.881,10.638L0.328,8.696L0.898,9.017L0,11.316Z"
                        style="fill:rgb(228,228,231);fill-rule:nonzero;" />
                </g>
                <g transform="matrix(1,0,0,1,128.169,210.339)">
                    <path
                        d="M0,-9.622L0,-4.311L1.625,-4.311C2.816,-4.525 3.835,-5.292 3.835,-6.646C3.835,-8.465 2.453,-9.622 0,-9.622M6.427,0.892C6.099,0.892 5.718,0.749 5.459,0.535C4.63,-0.142 3.49,-1.55 1.728,-3.777L0,-3.278L0,0.071L1.52,0.197L1.52,0.803L-3.04,0.803L-2.729,-0.071L-1.52,0.019L-1.52,-9.569L-3.283,-9.569L-3.023,-10.317C-1.261,-10.477 0.052,-10.514 0.967,-10.514C3.801,-10.514 5.425,-9.302 5.425,-7.217C5.425,-6.61 5.062,-5.898 4.682,-5.399L3.213,-4.365C4.389,-2.583 6.496,-0.428 7.36,0.107L8.673,0.197L8.673,0.803C8.137,0.839 7.36,0.892 6.427,0.892"
                        style="fill:rgb(228,228,231);fill-rule:nonzero;" />
                </g>
                <g transform="matrix(1,0,0,1,145.273,199.826)">
                    <path
                        d="M0,11.316L-8.742,11.316L-8.43,10.407L-6.737,10.478L-6.737,0.801L-8.258,0.695L-8.258,0.071L-0.881,0.071L-0.052,0L-0.587,2.405L-1.192,2.317L-1.192,1.051L-5.2,0.801L-5.2,5.204L-0.449,5.043L-0.726,6.042L-5.2,5.898L-5.2,10.496L-0.881,10.638L0.329,8.696L0.899,9.017L0,11.316Z"
                        style="fill:rgb(228,228,231);fill-rule:nonzero;" />
                </g>
                <g transform="matrix(1,0,0,1,151.217,210.286)">
                    <path
                        d="M0,-9.553L-0.742,-9.553L-0.742,0.035C-0.085,0.071 1.089,0.142 1.918,0.142C2.8,0.142 3.49,-0.249 4.077,-0.714C4.941,-1.39 5.495,-2.656 5.495,-4.153C5.495,-7.592 3.231,-9.553 0,-9.553M0.778,0.908C-0.812,0.908 -2.16,0.855 -4.181,0.855L-3.869,-0.054L-2.28,0.017L-2.28,-9.535L-4.129,-9.535L-3.853,-10.301C-2.176,-10.371 -1.261,-10.461 -0.19,-10.461C2.333,-10.461 3.767,-10.141 4.976,-9.267C6.324,-8.27 7.049,-6.7 7.049,-4.901C7.049,-1.605 4.561,0.908 0.778,0.908"
                        style="fill:rgb(228,228,231);fill-rule:nonzero;" />
                </g>
                <g transform="matrix(1,0,0,1,160.218,199.897)">
                    <path
                        d="M0,11.245L0.312,10.371L1.434,10.461L1.434,0.694L-0.052,0.605L-0.052,0L4.354,0L4.042,0.873L2.972,0.784L2.972,10.532L4.561,10.64L4.561,11.245L0,11.245Z"
                        style="fill:rgb(228,228,231);fill-rule:nonzero;" />
                </g>
                <g transform="matrix(1,0,0,1,175.612,208.701)">
                    <path
                        d="M0,-6.47L-0.605,-6.558L-0.605,-8.091L-4.112,-7.984L-4.112,1.71L-2.437,1.836L-2.437,2.441L-7.239,2.441L-6.928,1.567L-5.65,1.676L-5.65,-7.984L-8.914,-7.877L-9.416,-6.451L-10.003,-6.558L-9.623,-8.911L-8.897,-8.804L-0.277,-8.804L0.535,-8.875L0,-6.47Z"
                        style="fill:rgb(228,228,231);fill-rule:nonzero;" />
                </g>
                <g transform="matrix(1,0,0,1,184.319,199.897)">
                    <path
                        d="M0,11.245L0.312,10.371L1.521,10.461L1.521,5.648L0.397,5.971L-4.492,5.971L-4.492,10.514L-2.919,10.64L-2.919,11.245L-7.55,11.245L-7.238,10.371L-6.029,10.461L-6.029,0.766L-7.55,0.873L-7.238,0L-3.075,0L-3.075,0.605L-4.492,0.73L-4.492,5.097L1.521,5.097L1.521,0.766L0,0.873L0.312,0L4.631,0L4.631,0.605L3.058,0.73L3.058,10.514L4.631,10.64L4.631,11.245L0,11.245Z"
                        style="fill:rgb(228,228,231);fill-rule:nonzero;" />
                </g>
            </g>
        </g>
        <g transform="matrix(1,0,0,1,1680.56,923.791)">
            <g id="Press" transform="matrix(4.16667,0,0,4.16667,0,0)">
                <g transform="matrix(1,0,0,1,111.397,230.487)">
                    <path
                        d="M0,1.965L-4.838,4.426L-5.193,3.194C-1.806,2.164 -0.258,0.267 -0.258,-2.461C-0.258,-6.152 -3.129,-7.916 -7.289,-7.95L-7.289,10.181L-3.838,10.413L-3.838,11.545L-12.997,11.545L-12.416,9.914L-10.159,10.08L-10.159,-7.85L-13.739,-7.85L-13.158,-9.28C-9.998,-9.413 -7.837,-9.58 -5.837,-9.58C0.29,-9.58 2.773,-6.919 2.773,-3.193C2.773,-0.598 1.354,0.933 0,1.965"
                        style="fill:rgb(228,228,231);fill-rule:nonzero;" />
                </g>
                <g transform="matrix(1,0,0,1,122.845,240.534)">
                    <path
                        d="M0,-17.963L0,-8.05L3.031,-8.05C5.257,-8.449 7.159,-9.88 7.159,-12.408C7.159,-15.801 4.58,-17.963 0,-17.963M11.997,1.664C11.384,1.664 10.675,1.398 10.19,0.999C8.643,-0.266 6.514,-2.894 3.225,-7.052L0,-6.12L0,0.134L2.838,0.366L2.838,1.498L-5.676,1.498L-5.096,-0.133L-2.838,0.033L-2.838,-17.863L-6.127,-17.863L-5.644,-19.261C-2.354,-19.56 0.097,-19.627 1.806,-19.627C7.095,-19.627 10.126,-17.364 10.126,-13.472C10.126,-12.341 9.449,-11.011 8.74,-10.079L5.999,-8.15C8.191,-4.823 12.126,-0.797 13.739,0.2L16.189,0.366L16.189,1.498C15.189,1.563 13.739,1.664 11.997,1.664"
                        style="fill:rgb(228,228,231);fill-rule:nonzero;" />
                </g>
                <g transform="matrix(1,0,0,1,154.772,220.907)">
                    <path
                        d="M0,21.125L-16.318,21.125L-15.738,19.429L-12.578,19.561L-12.578,1.498L-15.416,1.298L-15.416,0.134L-1.645,0.134L-0.097,0L-1.097,4.491L-2.226,4.325L-2.226,1.963L-9.707,1.498L-9.707,9.715L-0.839,9.414L-1.354,11.277L-9.707,11.012L-9.707,19.595L-1.645,19.86L0.613,16.234L1.677,16.833L0,21.125Z"
                        style="fill:rgb(228,228,231);fill-rule:nonzero;" />
                </g>
                <g transform="matrix(1,0,0,1,163.607,220.741)">
                    <path
                        d="M0,21.624C-2.418,21.624 -4.062,21.058 -4.515,20.926L-4.966,16.567L-3.838,16.434L-3.45,18.597C-2.257,19.195 -0.161,19.495 0.903,19.495C3.226,19.495 4.225,19.262 4.58,19.128C5.321,18.597 6.16,17.299 6.16,15.668C6.16,13.905 5.128,13.107 3.129,12.509C1.419,12.01 0.582,11.776 -0.935,11.311C-3.546,10.479 -4.676,8.75 -4.676,6.388C-4.676,2.295 -0.645,0 3.29,0C5.063,0 7.547,0.365 8.192,0.599L7.289,5.09L6.16,4.923L6.257,2.628C5.58,2.429 3.838,1.963 2.29,1.963C0.709,1.963 -0.741,2.228 -1.064,2.528C-1.805,3.16 -2.128,4.292 -2.128,5.489C-2.128,7.252 -1.128,8.217 0.485,8.716C2,9.182 2.936,9.448 4.547,9.947C7.837,10.944 8.805,12.675 8.805,14.737C8.805,19.195 3.323,21.624 0,21.624"
                        style="fill:rgb(228,228,231);fill-rule:nonzero;" />
                </g>
                <g transform="matrix(1,0,0,1,179.957,220.741)">
                    <path
                        d="M0,21.624C-2.418,21.624 -4.062,21.058 -4.515,20.926L-4.966,16.567L-3.837,16.434L-3.45,18.597C-2.257,19.195 -0.161,19.495 0.903,19.495C3.226,19.495 4.225,19.262 4.58,19.128C5.321,18.597 6.16,17.299 6.16,15.668C6.16,13.905 5.128,13.107 3.129,12.509C1.42,12.01 0.582,11.776 -0.935,11.311C-3.546,10.479 -4.676,8.75 -4.676,6.388C-4.676,2.295 -0.645,0 3.29,0C5.063,0 7.548,0.365 8.191,0.599L7.289,5.09L6.16,4.923L6.257,2.628C5.58,2.429 3.838,1.963 2.29,1.963C0.71,1.963 -0.741,2.228 -1.064,2.528C-1.805,3.16 -2.128,4.292 -2.128,5.489C-2.128,7.252 -1.128,8.217 0.485,8.716C2,9.182 2.936,9.448 4.548,9.947C7.838,10.944 8.805,12.675 8.805,14.737C8.805,19.195 3.322,21.624 0,21.624"
                        style="fill:rgb(228,228,231);fill-rule:nonzero;" />
                </g>
            </g>
        </g>
        <g transform="matrix(1,0,0,1,1680.56,923.791)">
            <g id="Thick-Circle" serif:id="Thick Circle" transform="matrix(0,-4.16667,-4.16667,0,762.773,254.299)">
                <circle cx="-117" cy="0" r="117" style="fill:none;stroke:rgb(228,228,231);stroke-width:2.23px;" />
            </g>
        </g>
        <g transform="matrix(1,0,0,1,1680.56,923.791)">
            <g transform="matrix(0.44192,0,0,0.44192,-2062.62,-2144.32)">
                <g id="Tree">
                    <path
                        d="M7043.9,7267.02C7046.69,7265.49 7049.32,7264.22 7050.29,7259.61C7053.42,7245.29 7062.49,7241.01 7072.32,7239.64C7079.69,7238.59 7087.44,7239.74 7095.02,7240.52C7103.04,7241.24 7109.06,7246.52 7111.25,7257.97C7113.84,7271.8 7116.33,7285.55 7118.57,7299.38C7119.19,7302.95 7119.04,7306.65 7119.1,7308.72C7123.13,7330.89 7123.39,7351.36 7123.19,7371.86C7123.07,7381.93 7120.15,7390.14 7115.97,7397.55C7113.91,7401.17 7110.97,7401.99 7107.72,7399.14C7103.42,7395.27 7099.04,7391.48 7095.07,7387.09C7076.93,7366.98 7056.51,7353.09 7035.27,7342.58C7023.49,7336.68 7018.47,7325.76 7016.79,7310.28C7015.94,7302.7 7017.47,7296.45 7020.94,7290.74C7027.22,7280.33 7034.7,7272.26 7043.9,7267.02M6567.24,6272.75C6560.22,6265.04 6553.49,6257.3 6548.96,6246.52C6545.97,6239.32 6542.56,6232.46 6539.3,6225.57C6529.41,6204.61 6525.33,6181.72 6522.7,6158.62C6519.09,6126.43 6516.14,6094.23 6508.84,6062.48C6506.94,6054.19 6505.11,6045.74 6502.55,6037.75C6496.75,6019.88 6496.57,6001.78 6496.25,5983.72C6496.16,5977.07 6497.36,5970.79 6500.63,5965.72C6511.24,5949.44 6522.04,5933.47 6535.32,5920.73C6538.79,5917.42 6542.15,5916.12 6546.31,5917.96C6554.12,5921.53 6562,5925.1 6569.7,5929.32C6574.66,5931.99 6579.42,5933.47 6584.19,5931.9C6585.57,5931.47 6587.13,5929.32 6587.45,5927.45C6588.01,5923.76 6585.78,5921.92 6583.44,5921.18C6579.02,5919.69 6574.51,5919.03 6570.24,5917.01C6565.92,5915.06 6561.8,5911.95 6556.2,5908.47C6560.16,5901.14 6563.2,5895.71 6566.12,5890.11C6567.37,5887.83 6568.71,5885.56 6569.6,5882.98C6571.33,5877.92 6569.98,5872.63 6566.64,5870.3C6563.15,5867.91 6559.26,5869.03 6557.4,5873.4C6556.02,5876.85 6555.02,5880.83 6553.87,5884.59C6552.25,5889.91 6549.08,5892.11 6544.91,5893.02C6524.85,5897.32 6506.98,5907.81 6490.97,5923.04C6489.56,5924.36 6488.41,5926.09 6486.97,5927.26C6484.57,5929.19 6481.07,5927.71 6480.26,5923.86C6477.91,5912.23 6472.75,5902.35 6468.51,5891.78C6458.72,5867.44 6446.12,5846.64 6429.35,5830.14C6427.11,5827.92 6425.2,5824.93 6423.3,5822.14C6408.6,5800.1 6391.61,5781.95 6373.57,5765.49C6370.54,5762.72 6367.57,5759.7 6364.2,5756.4C6370.16,5753.58 6383.97,5751.55 6388.65,5752.84C6401.56,5756.4 6414.53,5759.47 6427.27,5764.11C6441.78,5769.36 6455.78,5776.46 6469.48,5787C6488.04,5801.36 6506.94,5815.93 6527.62,5823.2C6537.06,5826.47 6545.6,5832.86 6553.29,5841.64C6562,5851.71 6571.68,5859.48 6581.92,5865.43C6593.96,5872.44 6601.43,5885.72 6606.82,5900.34C6613.24,5917.8 6618.65,5935.94 6623.15,5954.25C6627.81,5973.05 6633.94,5991.84 6633.26,6011.66C6633.02,6018.79 6633.31,6026.22 6632.46,6033.14C6629.88,6054.44 6630.86,6076.26 6632.41,6098.08C6634.61,6129.63 6637.44,6161.14 6639.86,6192.64C6641.36,6211.69 6640.69,6230.1 6635.81,6247.42C6632.17,6260.21 6625.35,6268.03 6616.24,6272.72C6610.2,6275.88 6604.09,6278.68 6597.86,6281.01C6587.31,6285.16 6577.06,6283.53 6567.24,6272.75M6801.84,5463.23C6806.73,5447.56 6815.91,5437.76 6826.24,5429.36C6829.89,5426.42 6833.27,5422.85 6836.82,5419.75C6843.91,5413.58 6851.2,5408.04 6859.13,5403.45C6874.52,5394.59 6888.93,5383.5 6901.76,5369.15C6912.14,5357.57 6922.84,5346.39 6933.49,5335.14C6935.72,5332.85 6938.38,5331.2 6942.48,5327.98C6942.14,5334.41 6942.24,5338.46 6941.68,5342.15C6937.16,5370.25 6939.83,5397.93 6949.5,5425.88C6958.2,5450.95 6961.8,5476.72 6959.06,5502.83C6957.83,5514.73 6954.83,5524.84 6947.85,5532.94C6938.31,5544.13 6929.68,5556.86 6921.24,5569.6C6901.9,5598.88 6893.23,5634.83 6893.4,5676.11C6893.48,5689.87 6894.07,5703.9 6893.15,5717.46C6891.77,5737.06 6889.3,5756.24 6887.23,5775.59C6886.68,5780.94 6886.28,5786.32 6885.23,5791.31C6884.24,5795.67 6882.9,5800.18 6880.86,5803.53C6877.75,5808.66 6874.94,5808.66 6870.52,5803.69C6860.65,5792.74 6851.08,5781.43 6841.44,5770.27C6827.16,5753.74 6811.28,5741.97 6793.61,5736.18C6788.11,5734.4 6782.82,5733.27 6780.94,5724.24C6769.35,5716.53 6766.15,5700.25 6759.89,5687.39C6751.75,5670.37 6745.19,5652.06 6737.44,5634.63C6733.56,5625.97 6732.18,5617.62 6733.54,5608.4C6736.06,5590.83 6740.6,5574.89 6747,5559.6C6761.02,5526.29 6781.31,5500.1 6797.94,5469.87C6799.19,5467.54 6801.08,5465.76 6801.84,5463.23M6939.75,6239.05C6936.95,6259 6929.8,6274.7 6918.49,6286.81C6914.2,6291.33 6910.69,6297.2 6906.58,6302.14C6904.39,6304.78 6901.9,6307.17 6899.27,6308.89C6895.15,6311.59 6891.7,6310.38 6888.53,6304.69C6881.93,6293.01 6875.59,6281.15 6869.37,6269.15C6867.57,6265.59 6865.96,6261.39 6865.22,6257.27C6860.57,6231.78 6851.46,6208.12 6842.87,6184.39C6836.49,6166.58 6832.23,6148.19 6828.18,6129.85C6825.43,6117.51 6825.43,6104.22 6829.36,6092.7C6839.43,6063.55 6852.07,6037.48 6872.22,6019.47C6883.22,6009.62 6891.73,5995.85 6899.28,5981.2C6901.9,5976.2 6904.78,5971.42 6907.99,5965.77C6915.82,5978.72 6917.53,5991.9 6918.37,6005.26C6919.06,6016.12 6919.67,6027.05 6919.64,6037.86C6919.63,6048.64 6919.57,6059.65 6918.11,6070C6915.37,6090.12 6916.83,6109.17 6926.11,6127.96C6928.89,6133.61 6930.19,6140.48 6932.05,6146.82C6932.92,6149.7 6933.26,6152.79 6934.33,6155.56C6945.25,6183.75 6943.67,6211.36 6939.75,6239.05M6786.97,5800.13C6803.17,5806.38 6819.41,5813 6834.12,5825.84C6842.79,5833.46 6849.88,5851.55 6850.94,5865.4C6851.77,5881.74 6851.78,5895.46 6848.64,5908.47C6847.45,5913.44 6846.07,5918.62 6846.07,5923.86C6846.01,5942.06 6838.89,5954.85 6831.02,5966.73C6822.65,5979.27 6812.14,5979 6801.19,5967.56C6793.75,5959.82 6788.9,5950.05 6786.91,5938.14C6784.99,5926.69 6783.58,5915.25 6784.96,5903.8C6787.18,5885.34 6785.48,5866.8 6780.7,5848.14C6779.82,5844.77 6779.39,5840.98 6779.42,5837.5C6779.42,5827.27 6779.6,5817.05 6779.95,5806.95C6780.18,5800.76 6782.28,5798.31 6786.97,5800.13M7044.76,5881.57C7047.87,5892.67 7051.43,5903.69 7054.81,5914.69C7055.32,5916.43 7056.03,5918.07 7056.43,5919.83C7061.57,5943.1 7066.7,5966.35 7071.82,5989.56C7073.96,5999.46 7063.43,6045.96 7061.82,6061.41C7059.57,6082.9 7052.32,6101.12 7041.95,6116.73C7036.34,6125.22 7030.96,6134.05 7025.1,6142.34C7022.23,6146.45 7018.75,6149.92 7015.18,6152.98C7010.89,6156.77 7008.16,6155.21 7005.32,6148.65C6999.8,6135.78 6997.2,6122.07 6994.55,6108.01C6993.9,6091.14 6992.9,6074.11 6992.62,6057.21C6992.3,6036.16 6992.59,6015.28 6992.4,5994.28C6992.36,5990.72 6991.68,5987.01 6991.06,5983.41C6987.86,5964.73 6985.08,5946.07 6983.98,5927.1C6983.25,5915.16 6980.03,5903.09 6977.56,5891.18C6974.89,5878.69 6972.66,5865.82 6968.63,5853.91C6962.16,5834.78 6960.5,5814.56 6955.85,5794.97C6952.07,5779.07 6950.28,5762.47 6948.39,5746.17C6947.68,5740.37 6948.83,5734.18 6950.1,5728.74C6951.56,5722.32 6958.28,5721.22 6962.34,5726.06C6962.71,5726.47 6963.04,5726.95 6963.27,5727.48C6972.32,5746.33 6986.33,5757.37 6999.01,5770.43C7007.78,5779.45 7013.85,5791.62 7019.66,5803.94C7031.24,5828.29 7037.41,5855.21 7044.76,5881.57M7775.9,5893.89C7774.11,5894.07 7772.39,5894.5 7770.6,5894.8C7757.5,5897.08 7744.34,5898.21 7730.73,5892.06C7727.76,5890.74 7724.43,5890.28 7721.39,5890.31C7712.54,5890.52 7703.78,5891.62 7694.9,5891.68C7674.56,5891.78 7656.57,5901.27 7638.22,5909.68C7626.5,5915.03 7616.94,5926.09 7603.78,5927.76C7587.18,5929.87 7570.99,5935.33 7553.8,5933.11C7541.75,5931.55 7529.62,5928.42 7517.54,5926.99C7504.17,5925.37 7490.71,5926.39 7477.39,5923.59C7457.3,5919.33 7439.68,5925.94 7422.13,5934.29C7404.4,5942.74 7389.56,5956.77 7375.75,5973.02C7369.71,5980.03 7362.84,5986.11 7355.86,5991.53C7348.99,5996.91 7341.01,5997.61 7332.77,5993.49C7322.75,5988.57 7312.86,5983.14 7302.99,5977.82C7298.26,5975.27 7293.69,5971.81 7288.9,5969.61C7283.88,5967.25 7278.63,5965.77 7273,5963.74C7278.75,5946.61 7288.85,5936.57 7299.37,5926.8C7306.56,5920.1 7315.51,5919.01 7323.38,5914.59C7339.05,5905.73 7355.75,5902.92 7373.49,5905.15C7380.6,5906.03 7387.97,5906.73 7394.8,5905.12C7411.48,5901.01 7428.11,5896.17 7444.34,5890.31C7453.06,5887.09 7461.16,5881.43 7469.18,5876.11C7480.27,5868.78 7490.61,5872.6 7500.29,5883.94C7504.89,5889.37 7509.71,5891.46 7515.27,5892.71C7526.31,5895.29 7536.53,5892.09 7546.83,5889.89C7547.83,5889.67 7548.44,5887.77 7549.24,5886.68C7548.31,5885.5 7547.28,5883.3 7546.38,5883.22C7539.69,5882.89 7532.89,5882.2 7526.39,5883.05C7518.35,5884.13 7511.26,5881.79 7504.84,5873.86C7502.86,5871.52 7500.73,5869.49 7497.61,5866.15C7505.86,5862.36 7513.11,5861.45 7520.74,5865.14C7530.25,5869.69 7539.65,5869.28 7548.62,5867.19C7560.2,5864.45 7571.28,5859.6 7582.69,5856.13C7589.04,5854.13 7595.56,5852.56 7602.1,5851.86C7609.95,5850.94 7618.03,5851.45 7625.92,5850.65C7629.55,5850.17 7633.01,5848.1 7637.62,5846.36C7635.18,5843.9 7634.14,5842.05 7633.01,5841.8C7613.63,5836.64 7594.38,5834.31 7576.26,5842.36C7564.97,5847.32 7553.26,5848.78 7541.22,5848.87C7538.95,5848.87 7535.99,5850.4 7533.67,5844.99C7537.23,5841.32 7540.97,5837.63 7544.55,5833.77C7548.82,5829.1 7553.46,5824.88 7557.1,5819.37C7565.23,5807.04 7575.8,5800.1 7587.52,5795.32C7600.77,5789.97 7613.85,5784.09 7626.98,5778.44C7628.2,5777.9 7629.43,5777.26 7630.62,5776.65C7634.8,5774.46 7640.69,5776.85 7642.87,5769.47C7638.16,5761.67 7633.14,5767.9 7628.29,5766.86C7627,5766.59 7625.65,5767.21 7624.42,5767.74C7603.81,5776.33 7582.96,5784.29 7562.66,5793.84C7552.57,5798.61 7543.3,5806.21 7537.11,5818.48C7534.55,5823.56 7530.82,5825.61 7526.71,5827.68C7511.81,5835.24 7496.96,5842.91 7482.34,5851.3C7468.95,5859.01 7455.34,5866.01 7440.78,5870.02C7429.29,5873.31 7417.58,5875.65 7406.32,5879.65C7397.54,5882.7 7388.73,5881.74 7379.82,5879.19C7375.11,5877.79 7370.12,5876.25 7366.4,5870.13C7369.58,5854.95 7374.58,5841.8 7380.92,5829.62C7383.37,5824.93 7385.93,5820.29 7387.72,5815.04C7393.74,5796.94 7401.47,5780.56 7411.75,5766.75C7419.22,5756.68 7426.95,5746.96 7434.95,5737.57C7436.59,5735.66 7439.87,5734.91 7442.27,5735.66C7447.91,5737.33 7452.68,5734.97 7457.9,5734.06C7478.25,5730.33 7495.31,5716.75 7513.82,5707.61C7515.55,5706.73 7516.79,5704.31 7519.82,5700.8C7515.52,5700.17 7513.18,5699.02 7511.4,5699.71C7499.68,5703.79 7487.64,5707.2 7476.53,5713.04C7467.42,5717.93 7459.01,5716.31 7450.04,5711.84C7449.56,5701.54 7452.63,5694.77 7456.03,5688.07C7463.52,5673.25 7472.97,5661.07 7482.52,5648.88C7494,5634.36 7505.59,5620.26 7520.2,5611.18C7524.01,5608.79 7527.25,5604.84 7530.39,5601.05C7531.26,5600 7531.16,5596.91 7530.89,5594.77C7530.77,5594.13 7528.18,5592.87 7527.25,5593.39C7523.24,5595.34 7519.09,5597.26 7515.53,5600.25C7498.61,5614.38 7481.67,5628.14 7467.74,5648.11C7453.14,5668.94 7438.88,5689.58 7430.6,5716.91C7430.12,5718.48 7429.62,5720.15 7428.93,5721.53C7422.53,5734.23 7415.69,5746.33 7403.77,5751.46C7402.61,5737.79 7401.61,5725.2 7400.4,5712.58C7399.13,5699.27 7397.34,5685.85 7401.52,5673.56C7401.98,5672.15 7400.68,5667.73 7399.87,5667.45C7397.95,5666.86 7395.73,5667.41 7393.97,5668.4C7392.95,5668.84 7392.27,5670.95 7391.94,5672.51C7389.75,5682.67 7388.2,5692.92 7389.87,5704.2C7392.08,5719.76 7393.7,5735.41 7393.97,5751.19C7394.06,5759.07 7392.35,5764.61 7388.61,5769.93C7383.36,5777.4 7378.66,5785.5 7374.07,5793.73C7366.38,5807.33 7358.61,5820.98 7351.6,5835.3C7343.96,5851.09 7332.68,5859.38 7319.51,5864.48C7316.58,5865.52 7313.67,5866.56 7310.9,5868.04C7293.34,5877.41 7275.01,5884.87 7260.82,5902.02C7260.35,5902.51 7259.16,5901.91 7257.17,5901.66C7255.85,5893.07 7254.34,5884.18 7253.02,5875.23C7249.45,5851 7253.04,5839.44 7268.18,5828.29C7279.4,5819.98 7290.64,5811.89 7302.16,5804.34C7313.18,5797.19 7322.22,5787.23 7328.04,5772.45C7329.24,5769.49 7330.45,5766.29 7330.9,5762.85C7331.11,5761.2 7329.8,5758.4 7328.57,5756.89C7327.93,5756.13 7325.77,5756.24 7324.98,5757.03C7323.44,5758.87 7322.31,5761.42 7321.05,5763.71C7312.36,5779.92 7300.67,5790.68 7286.25,5796.78C7274.28,5801.85 7262.62,5807.65 7250.76,5813.07C7248.9,5813.87 7246.8,5814.09 7244.95,5814.61C7241.55,5806.21 7241.92,5799.08 7243.81,5792.46C7246.32,5783.85 7248.54,5774.62 7252.53,5767.47C7258.07,5757.37 7258.99,5744.79 7262.19,5733.51C7262.78,5731.51 7262.73,5728.8 7262.39,5726.41C7262.19,5724.92 7261.15,5722.81 7260.16,5722.32C7259.28,5721.82 7257.48,5722.76 7257.03,5723.86C7252.95,5734.03 7249.21,5744.44 7245.09,5754.57C7243.76,5757.97 7241.75,5760.76 7239.61,5764.58C7238.02,5761.26 7236.83,5759.23 7236.13,5757.03C7233.71,5749.57 7231.58,5741.94 7229.25,5734.4C7229.01,5733.62 7227.74,5732.72 7227.09,5732.75C7226.32,5732.83 7225.46,5733.73 7225.15,5734.61C7224.62,5736.15 7224.34,5737.97 7224.34,5739.66C7224.28,5748.42 7226.87,5756.43 7229.75,5764.55C7232.14,5771.27 7234.8,5778.03 7232.82,5785.6C7228.57,5801.95 7229.31,5819.63 7230.72,5837.28C7232.09,5854.85 7233.9,5872.49 7235.67,5890.09C7237.57,5908.53 7235.82,5926 7232.55,5943.02C7231.49,5948.51 7229.35,5953.64 7225.06,5956.33C7208.78,5966.59 7192.72,5977.35 7174.5,5981.99C7159.16,5985.89 7143.28,5987.92 7128.85,5996.01C7126.65,5997.33 7124.14,5997.77 7121.93,5998.59C7115.81,5985.12 7111.17,5972.22 7108.76,5958.19C7107.62,5951.64 7105.89,5945.05 7104.11,5938.65C7097.86,5915.71 7091.06,5893.07 7085.16,5870.13C7076.57,5836.61 7072.78,5802.87 7075.63,5769.03C7076.33,5760.79 7076.98,5752.26 7076.41,5743.97C7075.22,5728.08 7080.55,5718.83 7089.35,5711.21C7103.6,5698.91 7118.89,5690.89 7136.72,5690.54C7138.93,5690.51 7141,5689.42 7143.16,5689.14C7154.61,5687.93 7166.01,5685.29 7177.54,5686.07C7186.96,5686.68 7196.22,5686.68 7205.34,5685.16C7222.16,5682.26 7239.44,5684.01 7256.05,5690.32C7274.69,5697.39 7293.45,5699.04 7311.99,5705.35C7313.28,5705.77 7314.62,5705.55 7315.94,5705.35C7322.07,5704.92 7328.19,5704.43 7334.27,5703.85C7342.21,5703.09 7350.12,5702.36 7358.03,5701.4C7359.67,5701.11 7361.48,5700 7362.61,5698.47C7363.61,5696.99 7364.65,5694.39 7364.31,5692.57C7363.93,5690.67 7361.86,5688.15 7360.51,5687.9C7357.94,5687.39 7355.3,5688.07 7352.78,5688.67C7333.49,5693.44 7314.29,5691.56 7294.6,5681.9C7275.05,5672.35 7255.31,5663.65 7234.99,5659.86C7232.67,5659.39 7230.38,5657.31 7227.09,5655.44C7229.57,5651.16 7231.06,5647.53 7233.22,5645.04C7241.91,5635.08 7250.42,5624.79 7261.16,5618.58C7273.37,5611.44 7285.56,5604.37 7297.36,5596.3C7306.15,5590.29 7315.03,5584.8 7324.62,5580.9C7328.22,5579.48 7331.66,5576.76 7334.64,5573.65C7348.06,5559.69 7361.23,5545.3 7376.38,5534.5C7382.4,5530.19 7387.92,5524.81 7393.89,5520.52C7403.25,5513.73 7412.78,5507.4 7422.23,5500.9C7424.81,5499.09 7427.64,5497.74 7430.09,5495.51C7440.78,5485.57 7452.66,5479.77 7466.5,5480.13C7469.15,5480.29 7472.02,5480.67 7474.46,5479.88C7487.25,5475.77 7499.92,5478.92 7512.78,5485.26C7520.31,5489.02 7528.1,5489.16 7535.16,5485.98C7538.21,5484.61 7540.8,5481.14 7543,5477.85C7544.7,5475.35 7542.68,5469.18 7540.11,5469.23C7530.09,5469.33 7521.04,5464.49 7511.77,5458.28C7506.5,5454.77 7500.45,5453.71 7494.74,5452.08C7488.12,5450.19 7481.65,5447.22 7474.76,5448.46C7470.28,5449.34 7465.16,5446.73 7460.11,5445.63C7459.75,5436.6 7462.23,5430.55 7465.31,5425.08C7476.08,5406.18 7484.57,5384.84 7496.12,5366.74C7499.41,5361.55 7503.09,5356.8 7506.51,5351.77C7507.93,5349.74 7509.59,5347.72 7510.29,5345.14C7510.71,5343.36 7509.97,5340.39 7509.07,5338.55C7508.54,5337.45 7506.59,5336.74 7505.49,5336.9C7503.82,5337.21 7501.99,5337.92 7500.83,5339.35C7480.98,5363.37 7461.02,5387.21 7444.68,5415.99C7439.05,5426.04 7433.37,5435.95 7430.58,5448.68C7429.5,5453.52 7427.29,5458.59 7424.38,5461.47C7417,5469.04 7409.65,5477.55 7400.98,5481.91C7388.87,5488.06 7377.41,5495.53 7365.93,5503.23C7364.25,5504.36 7362.26,5504.62 7360.24,5505.38C7357.94,5497.2 7359.99,5491.76 7361.69,5486.75C7367.89,5468.97 7374.5,5451.48 7381.08,5433.89C7384.29,5425.32 7390.43,5418.9 7389.38,5407.16C7389.24,5405.24 7390.84,5403.09 7391.83,5401.26C7397.68,5389.33 7403.66,5377.49 7409.57,5365.56C7415.35,5353.84 7422.85,5345.02 7432.89,5339.89C7436.8,5337.89 7440.45,5334.68 7443.75,5331.25C7449.71,5324.89 7455.46,5318.1 7461.14,5311.25C7463.21,5308.77 7466.73,5307.21 7465.43,5301.66C7464.77,5298.73 7460.97,5299.66 7456.37,5303.64C7450,5309.11 7444.4,5316.1 7436.17,5318.29C7433.11,5309.79 7433.14,5302.24 7434.37,5294.56C7435.47,5287.7 7436.6,5280.73 7436.91,5273.59C7437.1,5267.7 7436.23,5261.49 7435.51,5255.51C7435.34,5254.19 7433.61,5251.8 7432.87,5251.86C7431.34,5251.96 7429.43,5252.9 7428.59,5254.49C7427.73,5256.23 7427.49,5259 7427.76,5261.27C7428.95,5271.26 7426.74,5280.26 7426.25,5289.78C7425.44,5304.69 7420.06,5314.65 7411.99,5322.94C7407.98,5327.05 7404.72,5332.37 7401.24,5337.45C7393.43,5348.65 7386.44,5361.08 7377.86,5371.15C7364.28,5387.16 7368.14,5388.88 7350.21,5372.8C7338.85,5362.62 7332.87,5350.15 7332.15,5332.92C7331.53,5319.53 7330.75,5306.19 7329.84,5292.86C7329.6,5289.72 7330.35,5285.31 7325.38,5284.15C7322.77,5292.3 7320.12,5300.71 7317.36,5309.15C7312.93,5322.66 7312.45,5336.42 7319.28,5350.76C7320.8,5353.91 7321.89,5357.51 7323.09,5360.91C7327.04,5372.47 7331.6,5383.45 7339.43,5391.57C7341.17,5393.41 7343.12,5396.46 7343.46,5399.09C7345.75,5416.41 7349.21,5433.86 7345.42,5451.01C7337.29,5487.84 7324.07,5519.62 7300.86,5541.25C7292.24,5549.35 7282.99,5557.66 7272.74,5561.28C7256.68,5566.9 7244,5578.7 7231.41,5591.17C7218.07,5604.42 7204.92,5617.62 7189.54,5627.04C7179.45,5633.19 7169.14,5635.46 7157.71,5634.39C7145.61,5633.26 7133.52,5632.85 7121.61,5633.13C7104,5633.54 7103.06,5632.47 7107.37,5610.6C7111.23,5591.22 7112.73,5571.21 7112.36,5550.49C7112.01,5529.78 7114.02,5509.63 7119.35,5491.05C7122.56,5479.83 7125.76,5468.39 7132.28,5459.52C7137.35,5452.63 7143.12,5450.95 7150.3,5453.59C7152.5,5454.36 7154.63,5455.68 7156.82,5456.58C7175.49,5464.22 7194.1,5470.83 7211.17,5457.22C7224.8,5454.23 7232.14,5438.19 7243.71,5430.9C7244.76,5430.24 7245.55,5428.51 7245.99,5426.95C7246.99,5423.93 7249.11,5420.33 7245.93,5417.39C7244.37,5416.08 7241.38,5416.1 7239.73,5417.23C7233.22,5421.45 7226.95,5426.31 7220.61,5431.04C7204.94,5442.84 7180.53,5441 7161.87,5426.04C7166.66,5421.7 7171.24,5417.69 7175.64,5413.41C7187.41,5401.94 7198.21,5389.43 7200.57,5367.7C7201,5363.17 7203.48,5359.35 7204.75,5355.09C7206.63,5348.65 7208.57,5342.15 7210.04,5335.48C7213.12,5320.9 7213.07,5304.72 7219.04,5291.57C7219.25,5291.12 7219.38,5290.14 7219.15,5289.84C7218.04,5288.22 7216.84,5285.64 7215.55,5285.36C7214.01,5285.01 7211.97,5286.02 7210.95,5287.56C7199.89,5303.59 7190.09,5320.62 7188.48,5344.67C7186.98,5366.81 7177.98,5382.29 7165.33,5394.01C7154.18,5404.41 7142.51,5413.94 7131.46,5424.53C7116.4,5438.97 7104.11,5456.81 7096.9,5480.6C7095.08,5486.47 7093.74,5492.73 7091.51,5498.28C7085.15,5514.02 7083.65,5531.58 7084.45,5550.05C7084.74,5556.7 7085.17,5563.45 7085.66,5570.12C7087.16,5591.3 7079.07,5607.52 7073.96,5625.25C7073.53,5626.76 7072.32,5628 7071.25,5628.79C7067.15,5631.7 7065.74,5637.16 7064.03,5642.51C7061.75,5649.35 7059.42,5656.29 7056.46,5662.6C7048.29,5680.34 7042.37,5699.49 7037.9,5719.76C7037.33,5722.34 7036.43,5724.68 7035.18,5728.87C7031.66,5722.49 7029.17,5717.98 7026.72,5713.4C7020.72,5701.98 7014.98,5690.29 7008.7,5679.1C7003.31,5669.52 6996.94,5660.82 6991.68,5651.13C6986,5640.65 6982.41,5628.71 6981.54,5616.44C6979.76,5590.7 6985.24,5568.28 6995.92,5549.04C7004.89,5533.01 7014.55,5517.75 7023.3,5501.57C7029.27,5490.56 7035.34,5479.23 7039.48,5466.71C7046.98,5444.26 7057.71,5426.48 7074.1,5415.91C7095.93,5401.72 7112.99,5379.39 7131.93,5360.23C7135.64,5356.42 7138.93,5351.91 7142.44,5347.72C7148.78,5340.3 7152.17,5330.3 7153.16,5318.84C7153.83,5310.64 7154.12,5302.14 7153.61,5293.7C7153.1,5285.53 7154,5278.61 7156.49,5271.45C7162.86,5253.2 7168.92,5234.63 7174.18,5215.52C7176.3,5207.68 7178.66,5200.61 7182.74,5194.66C7188.88,5185.83 7193.24,5175.32 7196.87,5164.11C7197.56,5162 7198.78,5159.59 7198.45,5157.64C7197.97,5155.01 7196.35,5152.23 7194.68,5150.62C7193.96,5149.9 7191.31,5151.42 7190.58,5152.86C7189.18,5155.69 7188.69,5159.35 7187.66,5162.48C7183.27,5175.19 7176.69,5185.16 7168.5,5193.35C7164.08,5188.09 7163.26,5182.07 7161.81,5176.2C7159.57,5166.68 7157.69,5156.81 7154.07,5148.18C7148.59,5134.98 7141.75,5122.63 7135.47,5109.92C7134.43,5107.84 7133.25,5105.89 7131.93,5104.11C7131.43,5103.42 7130.05,5103.06 7129.57,5103.47C7129.07,5103.99 7128.59,5105.77 7128.84,5106.51C7132.79,5117.85 7137.02,5128.94 7140.82,5140.27C7146.92,5158.66 7153.16,5177.01 7155.56,5196.75C7156.63,5205.97 7156.19,5214.86 7153.23,5222.94C7150.88,5229.3 7147.21,5229.32 7144.18,5222.98C7142.05,5218.57 7141.84,5212.14 7136.96,5210.48C7136.66,5211.13 7136.17,5211.7 7136.26,5212.11C7137.49,5216.73 7138.35,5221.57 7140.11,5225.9C7144.17,5236 7143.66,5242.94 7137.78,5250.98C7125.62,5267.7 7115.7,5287.1 7110.02,5310.07C7108.49,5316.19 7107.88,5322.82 7106.23,5328.75C7104.73,5334.1 7103.25,5340.25 7100.24,5343.65C7094.82,5349.86 7088.61,5355.24 7082.03,5359.19C7073.85,5364.13 7065.1,5367.7 7056.41,5371.18C7037.31,5378.92 7021.69,5392.83 7009.57,5413.58C7006.17,5419.37 7001.98,5424.28 6997.94,5429.28C6996.23,5431.34 6993.14,5429.64 6992.56,5426.42C6991.3,5419.75 6990.88,5412.95 6989.19,5406.56C6984.97,5390.75 6980.33,5375.07 6975.73,5359.44C6969.3,5337.26 6963.25,5315.06 6965.57,5291.73C6965.8,5289.45 6964.74,5286.91 6964.55,5284.52C6963.15,5268.7 6961.77,5252.9 6960.54,5237.09C6959.42,5222.21 6962.49,5208.49 6964.92,5194.94C6966.62,5185.47 6970.92,5177.16 6974.2,5168.4C6982.23,5147.41 6992.44,5128.23 6998.01,5105.14C7000.4,5095.26 7005.76,5088.98 7013.69,5086.81C7017.47,5085.74 7021.04,5083.41 7024.7,5081.79C7031.27,5079.04 7035.58,5073.28 7037.98,5064.53C7041.45,5051.96 7045.19,5039.6 7048.71,5027.06C7050.52,5020.7 7051.57,5014 7050.72,5003.33C7048.44,5007.4 7047.08,5008.77 7046.77,5010.61C7044.39,5025.94 7039.02,5039.09 7033.23,5051.8C7030.85,5057.03 7027.69,5062.28 7023.8,5065.41C7017.36,5070.82 7010.14,5074.6 7003.13,5079.02C7002.48,5079.42 7001.49,5079.13 6999.73,5079.3C6999.8,5071.36 6998.01,5062.63 7001.21,5056.62C7005.04,5049.46 7005.67,5041.8 7005.32,5033.24C7004.48,5014.75 7009.73,4999.7 7016.45,4985.51C7017.35,4983.57 7018.99,4982.14 7019.52,4980.11C7019.94,4978.38 7019.26,4975.94 7019.05,4973.85C7017.9,4974.15 7016.18,4973.88 7015.61,4974.87C7012.99,4979.37 7010.14,4983.76 7008.32,4988.95C7004.61,4999.92 7002.48,5012.33 6997.86,5022.43C6992.91,5033.24 6992.06,5045.46 6990.65,5057.61C6989.82,5064.61 6989.64,5071.88 6989.76,5079.13C6990.07,5094.44 6986.34,5106.93 6979.32,5117.66C6971.22,5130.04 6966.35,5145.79 6958.32,5158.44C6952.61,5167.44 6948.97,5178.99 6944.16,5189.2C6936.2,5206.31 6930.09,5224.69 6927.32,5245.38C6925.79,5257.02 6923.56,5268.46 6921.28,5279.8C6918.67,5292.5 6913.12,5302.49 6906.43,5311.54C6882.77,5343.6 6854.83,5366.87 6821.91,5380.05C6818.24,5381.56 6814.79,5383.99 6811.34,5386.3C6807.57,5388.94 6804.1,5392.29 6800.24,5394.78C6790.15,5401.23 6784.71,5397.86 6780.67,5382.22C6778.88,5375.25 6777.3,5367.76 6777.2,5360.67C6776.98,5344.07 6773.48,5328.15 6770.26,5312.02C6766.92,5294.88 6766.16,5278.56 6773.87,5264.04C6781.27,5249.99 6787.62,5234.92 6793.93,5219.92C6803.76,5196.4 6816.72,5177.4 6834.05,5163.82C6839.81,5159.35 6845.62,5156.43 6852.7,5157.92C6859.62,5159.38 6865.78,5156.74 6872.1,5154.65C6879.24,5152.35 6882.77,5145.66 6884.89,5137.06C6885.32,5135.27 6884.89,5131.74 6883.92,5130.78C6882.77,5129.51 6880.42,5129.38 6878.99,5130.04C6874.57,5132.09 6870.57,5136.1 6866.01,5136.81C6858.74,5138.02 6851.16,5137.19 6842.51,5137.25C6845.53,5120.59 6847.51,5104.87 6851.29,5090.22C6855.45,5074.27 6857.69,5057.29 6863.85,5042.54C6864.89,5040.18 6866.16,5036.9 6863.62,5034.51C6860.33,5031.48 6858.58,5035.08 6857.39,5037.94C6853.82,5046.42 6849.94,5054.78 6847.45,5064.01C6842.84,5081.02 6839.64,5098.86 6834.83,5115.65C6829.72,5133.61 6823.03,5149.96 6810.13,5160.09C6804.39,5164.51 6799.68,5171.75 6795.62,5178.88C6790.46,5187.91 6786.18,5197.99 6781.97,5208.03C6773.91,5226.89 6762.53,5241.21 6749.26,5252.9C6742.74,5258.63 6742.58,5258.39 6736.16,5250.02C6735.16,5248.7 6734.22,5247.05 6733.04,5246.26C6716.81,5234.63 6706.09,5214.56 6693.49,5197.46C6691.23,5194.47 6689.79,5190.22 6688.08,5186.43C6686.37,5182.58 6685.34,5178.06 6683.11,5174.97C6672.89,5160.83 6670.3,5142.96 6666.34,5125.78C6664.36,5117.24 6664.3,5108.03 6668.12,5101.6C6673.88,5091.83 6680.7,5083.16 6689.3,5077.57C6691.48,5076.16 6693.5,5076.68 6695.26,5079.71C6701.65,5090.35 6710.12,5091.83 6718.7,5092.19C6736.65,5092.88 6750.16,5080.66 6763.28,5067.99C6766.36,5065.02 6767.36,5058.24 6769.14,5053.11C6769.36,5052.4 6768.71,5050.37 6768.13,5049.92C6767.06,5049.05 6765.51,5048.14 6764.52,5048.62C6762.97,5049.29 6761.53,5050.72 6760.41,5052.4C6752.51,5063.49 6741.71,5067.71 6731.09,5072.6C6725.08,5075.37 6718.74,5073.5 6712.59,5072.32C6706.64,5071.17 6703.02,5061.87 6704.92,5054.4C6707.02,5046.14 6709.53,5038.08 6711.35,5029.7C6712.3,5025.33 6712.34,5020.46 6712.34,5015.74C6712.38,5014.53 6710.88,5012.31 6709.9,5011.86C6708.86,5011.42 6707,5012.14 6706.54,5013.29C6705.03,5016.7 6703.9,5020.43 6702.81,5024.15C6698.25,5040.02 6693.42,5054.78 6680.22,5061.51C6674.79,5064.26 6671.49,5073.44 6667.52,5080.06C6665.97,5082.58 6665.15,5086.05 6662.85,5092.43C6660.24,5062.33 6658.19,5036.26 6655.7,5010.22C6654.41,4997.18 6655.65,4985.07 6658.27,4973.09C6661.2,4959.64 6663.58,4945.84 6665.89,4932.03C6666.17,4930.3 6664.63,4927.78 6663.95,4925.64C6662.4,4926.35 6660.12,4926.41 6659.52,4927.91C6656.24,4935.95 6653.04,4944.13 6650.42,4952.61C6645.68,4967.74 6642.57,4983.73 6643.8,5001.06C6646.16,5033.9 6646.01,5066.42 6645.75,5099.02C6645.65,5109.84 6645.87,5120.71 6645.3,5131.46C6644.76,5142.69 6644.41,5153.91 6644.33,5165.25C6644.27,5184.27 6646.48,5203.12 6652.07,5221.25C6655.86,5233.66 6658.87,5247.53 6669.57,5254.38C6671.47,5255.59 6672.72,5259 6674.45,5261.14C6676.47,5263.74 6678.54,5266.37 6680.88,5268.4C6688.29,5274.86 6695.83,5281.3 6703.45,5287.42C6716.35,5297.82 6721.66,5316.22 6729.96,5331.39C6731.4,5333.97 6731.11,5338.44 6731.24,5341.99C6731.69,5351.67 6730.69,5361.68 6732.52,5371.04C6735.99,5389.3 6732.85,5405.84 6731.39,5422.83C6730.89,5428.65 6729.85,5434.55 6728.26,5439.85C6718.32,5473.05 6701.68,5498.41 6679.94,5517.68C6678.6,5518.86 6676.75,5519.97 6675.17,5519.62C6667.98,5518.19 6664.94,5524.06 6662.12,5530.9C6656.77,5543.99 6651.94,5557.66 6645.74,5569.96C6639.86,5581.43 6638.53,5594.71 6637.61,5608.26C6636.23,5628.07 6636.51,5647.92 6642.11,5667.95C6645.57,5680.16 6648.27,5692.76 6651.3,5705.33C6651.81,5707.5 6652.1,5709.81 6652.88,5714.27C6649.55,5712.08 6647.47,5711.21 6645.77,5709.5C6628.39,5692.38 6617.67,5668.81 6609.1,5643.33C6606.25,5634.8 6602.55,5625.97 6601.72,5617.15C6600.39,5603.38 6596.3,5591.03 6591.94,5578.49C6590,5572.76 6587.57,5566.77 6587.35,5560.98C6586.5,5541.52 6586.73,5522.2 6593.39,5505.16C6598.57,5491.98 6603.97,5478.92 6608.57,5465.25C6615.66,5443.69 6625.74,5425.66 6638.93,5410.73C6648.94,5399.34 6658.74,5387.48 6668.1,5375.16C6671.3,5370.91 6674.16,5365.18 6675.13,5359.19C6677.12,5347.12 6678.11,5334.57 6678.6,5322.08C6678.85,5316.32 6677.15,5310.07 6675.98,5304.16C6675.75,5302.79 6674.09,5301.03 6673.04,5300.76C6672.06,5300.55 6670.29,5301.89 6670.1,5303.04C6668.13,5315.66 6663.04,5326.64 6663.72,5340.66C6664.01,5346.95 6661.7,5353.15 6660.24,5359.16C6659.92,5360.43 6658.23,5360.91 6657.15,5361.74C6656.48,5360.23 6655.19,5358.69 6655.21,5357.38C6655.42,5353.26 6656.29,5349.32 6656.49,5345.16C6656.54,5343.8 6655.59,5341.22 6654.76,5340.81C6653.78,5340.3 6652,5341.02 6651.33,5342.12C6647.2,5349.03 6644.93,5357.13 6647.11,5366.87C6648.56,5373.32 6647.2,5377.3 6643.12,5379.9C6640.49,5381.56 6638.1,5383.75 6634.54,5386.56C6634.28,5382.07 6633.91,5379.06 6633.97,5376.28C6634.07,5365.41 6635.2,5354.58 6634.3,5343.77C6632.68,5323.74 6630.12,5303.67 6627.7,5283.63C6625.9,5269.07 6623.39,5254.57 6625.35,5240.19C6625.8,5236.79 6625.51,5232.95 6624.99,5229.38C6624.74,5227.46 6623.25,5225.81 6622.27,5224.06C6621.28,5225.68 6619.57,5227.11 6619.31,5228.97C6618.55,5234.82 6618.76,5240.99 6617.81,5246.7C6614.69,5265.5 6616.24,5284.65 6619.13,5304.16C6620.66,5314.37 6621.06,5324.75 6621.53,5335.07C6622.04,5345.97 6622.21,5356.83 6622.21,5367.64C6622.27,5371.78 6621.48,5375.76 6620.86,5379.77C6618.7,5393.66 6611.55,5403.02 6605.74,5413.41C6599.15,5425.3 6592.78,5438.14 6584.23,5447.06C6575,5456.78 6570.01,5469.45 6566.18,5483.64C6564.37,5490.29 6562.21,5496.15 6558.69,5500.86C6557.36,5499.69 6556.26,5499.24 6555.93,5498.38C6548.74,5480.24 6538.92,5464.9 6527.48,5451.26C6526.44,5449.89 6525.56,5448.43 6524.57,5447C6513.38,5431.04 6501.47,5416.76 6485.28,5412.34C6483.91,5412.01 6482.6,5411.44 6481.32,5410.62C6468.3,5402.63 6455.21,5394.59 6441.48,5390.34C6428.98,5386.33 6418.44,5377.65 6408.39,5366.77C6394.77,5352.06 6387.78,5334.06 6388.9,5311.49C6389.19,5305.54 6388.57,5299.44 6388.74,5293.47C6388.82,5290.61 6389.25,5287.26 6390.47,5285.42C6396.8,5275.51 6405.29,5276.39 6412.35,5287.39C6413.87,5289.78 6415.21,5292.5 6416.44,5295.19C6423.3,5310.94 6435.45,5314.86 6446.18,5321.92C6446.93,5322.37 6448.08,5322.31 6448.77,5321.81C6450.15,5320.8 6452.07,5319.5 6452.38,5317.81C6452.61,5316.29 6451.25,5313.03 6450.02,5312.04C6443.62,5306.77 6436.84,5302.49 6430.51,5297.05C6420.74,5288.54 6420.35,5284.27 6427.58,5275.21C6428.81,5273.7 6430.79,5272.79 6431.46,5270.9C6433.29,5265.8 6434.65,5260.28 6436,5254.87C6436.16,5254.19 6435.41,5252.41 6434.77,5251.8C6434.16,5251.23 6432.83,5251.11 6432.4,5251.64C6429.14,5255.23 6426.29,5259.51 6422.84,5262.86C6420.19,5265.44 6416.92,5269.1 6413.99,5268.6C6404.13,5266.68 6395.92,5271.37 6387.05,5275.7C6383.47,5261.19 6380.35,5247.6 6376.62,5234.18C6374.07,5225.1 6374.29,5217.27 6378.48,5210.58C6385.91,5198.51 6382.83,5183.79 6380.72,5169.42C6380.43,5167.33 6378.72,5165.52 6376.95,5162.26C6375.85,5165.52 6374.71,5167.35 6374.65,5169.39C6374.41,5176.56 6374.74,5183.88 6374.49,5191.02C6374.37,5195.16 6373.89,5199.36 6372.78,5203.06C6370.85,5209.97 6367.69,5210.11 6364.04,5204.08C6361.62,5200.16 6359.52,5195.8 6356.68,5192.58C6355.4,5191.12 6352.72,5191.92 6350.65,5191.76C6351.05,5193.92 6350.97,5196.56 6351.89,5198.18C6358.95,5209.87 6363.4,5222.74 6365.66,5237.02C6366.44,5241.78 6367.96,5246.59 6369.61,5251.09C6373.53,5261.68 6374.38,5272.25 6373.98,5283.34C6373.36,5301.34 6373.78,5319.47 6378.36,5337.67C6380.6,5346.39 6381.9,5355.48 6379.76,5363.91C6364.13,5363.41 6348.84,5358.53 6334.1,5363.37C6331.43,5364.23 6327.43,5363.78 6325.1,5361.63C6315.02,5352.49 6304.41,5343.49 6301.71,5325.52C6301.37,5323.19 6300.86,5320.3 6299.7,5318.6C6297.25,5314.98 6294.35,5311.69 6291.43,5308.8C6290.76,5308.14 6288.71,5308.91 6288.05,5309.92C6287.51,5310.75 6287.74,5313.33 6288.33,5314.54C6290.52,5319.25 6293.36,5323.57 6295.29,5328.45C6298.39,5336.27 6301.05,5344.32 6303.53,5352.49C6305.4,5358.65 6308.34,5362.95 6312.55,5366.57C6326.12,5378.09 6340.26,5384.41 6355.47,5382.16C6365.76,5380.7 6376.22,5381.72 6385.73,5389.68C6403.49,5404.69 6422.45,5413.86 6441.95,5421.13C6452.55,5425.11 6463.16,5429.66 6473.3,5435.84C6483.34,5441.93 6493.81,5447.61 6501.81,5459.58C6507.12,5467.61 6513.15,5474.89 6518.75,5482.63C6530.77,5499.24 6541.59,5516.53 6545.34,5539.76C6548.02,5555.93 6551.76,5572.09 6555.81,5588.01C6563.45,5618.14 6571.33,5648.24 6579.81,5678.08C6582.28,5686.62 6586.7,5694.62 6591.03,5702.04C6596.56,5711.56 6603.42,5719.74 6608.83,5729.4C6622.66,5754.15 6640.47,5769.22 6661.65,5776.77C6662.57,5777.1 6663.44,5777.51 6664.35,5777.61C6669.4,5778.41 6672.23,5782.99 6675.17,5788.4C6681.57,5800.18 6680.7,5813.1 6682.23,5825.61C6683.27,5833.83 6681.24,5840.96 6679.18,5848.04C6673.44,5867.44 6651.72,5870.66 6641.13,5854.19C6638.03,5849.35 6634.94,5844.57 6631.81,5839.78C6628.1,5833.99 6624.84,5827.34 6620.51,5822.59C6604.58,5805.5 6587.94,5789.64 6569.6,5778.5C6551.4,5767.35 6532.62,5758.21 6515.43,5743.61C6501.13,5731.51 6487.09,5718.7 6472.78,5706.48C6458.14,5694.11 6446.57,5677.42 6436.37,5658.84C6432.71,5652.12 6429.03,5645.48 6425.89,5638.39C6418.45,5621.6 6410.15,5605.44 6405.19,5586.84C6400.55,5569.22 6394.63,5552.18 6385.15,5537.37C6382.49,5533.2 6380.83,5527.59 6379.5,5522.31C6374.36,5502.86 6367.77,5484.74 6358.17,5467.37C6348.26,5449.26 6336.45,5439.9 6321.61,5435.56C6314.5,5433.53 6307.39,5431.09 6300.28,5429.47C6286.86,5426.48 6273.77,5419.37 6260.14,5419.43C6256.37,5419.4 6252.25,5416.76 6248.41,5414.57C6243.48,5411.77 6239.28,5406.06 6233.21,5409.05C6231.26,5409.98 6227.13,5406.64 6224.85,5403.87C6219.75,5397.55 6217.05,5389.59 6216.8,5380.6C6216.38,5364.01 6217.24,5347.72 6222.71,5333.69C6229.55,5316.22 6230.6,5296.59 6231.1,5276.78C6231.47,5262.26 6229.45,5247.57 6223.89,5233.8C6221.93,5228.97 6219.16,5224.44 6216.37,5220.17C6214.35,5217.14 6211.27,5215.55 6209.26,5218.6C6208.22,5220.13 6208.75,5223.83 6208.87,5226.64C6208.88,5227.68 6209.8,5228.75 6210.15,5229.93C6213.12,5241.7 6217.11,5253.31 6218.79,5265.31C6221.66,5285.8 6218.86,5305.17 6212.08,5322.37C6206.78,5335.72 6202.25,5349.32 6200.14,5364.54C6200.05,5365.37 6198.93,5365.75 6197.93,5366.68C6195.01,5363.91 6191.62,5361.39 6189.02,5357.89C6180.89,5347.25 6170.71,5345.3 6161.15,5343.46C6153.3,5341.96 6145.12,5343.77 6138.54,5349.92C6137.4,5350.93 6136.64,5354 6137.02,5355.79C6137.34,5357.25 6139.68,5359.05 6141.11,5359.16C6146.42,5359.46 6152,5357.29 6156.97,5359.55C6170.67,5365.66 6182.96,5375.92 6191.57,5392.94C6198.19,5406 6203.97,5419.67 6215.01,5427.57C6220.14,5431.25 6224.44,5437.46 6229.16,5442.53C6223.68,5455.24 6216.18,5464.13 6207.2,5471.18C6200.22,5476.62 6193.83,5483.34 6187.16,5489.38C6184.02,5492.23 6181.03,5495.58 6177.63,5497.74C6169.56,5502.97 6161.24,5507.58 6153.04,5512.46C6151.88,5513.15 6150.81,5513.96 6149.66,5514.73C6152.91,5517.62 6154.58,5518.09 6156.2,5518.09C6171.39,5518.13 6186.24,5516.09 6200.23,5509.6C6203.53,5508.01 6206.05,5510.57 6205.7,5514.79C6205.16,5521.85 6205.26,5529.82 6202.87,5535.46C6195.83,5552.75 6187.12,5568.28 6172.13,5574.42C6170.5,5575.08 6168.44,5575.38 6167.51,5576.95C6166.81,5578.13 6167.09,5582.17 6167.84,5582.9C6169.64,5584.64 6172.19,5586.25 6174.05,5585.87C6178.28,5584.96 6182.67,5583.54 6186.4,5580.93C6193.96,5575.69 6201.92,5570.69 6208.35,5563.45C6219.27,5551.38 6227.83,5537.54 6226.61,5514.44C6225.47,5492.04 6234.59,5475.19 6248.79,5467.61C6262.75,5460.15 6278.56,5459.82 6294.27,5470.36C6311.16,5481.72 6327.14,5494.65 6336.92,5518.31C6338.52,5522.18 6341.2,5525.36 6342.59,5529.2C6348.91,5547.31 6357.11,5564.76 6356.03,5585.13C6355.91,5587.95 6357.09,5591.11 6357.8,5594.05C6359.93,5602.89 6362.95,5611.64 6364.26,5620.61C6367.03,5639.93 6375.51,5656.29 6381.9,5673.61C6384.13,5679.68 6387.85,5684.97 6391.32,5690.29C6396.62,5698.36 6402.39,5705.99 6407.78,5714.01C6409.46,5716.5 6410.41,5719.68 6411.85,5722.81C6410.03,5723.5 6409.21,5724.02 6408.4,5724.02C6387.9,5723.99 6367.28,5723.06 6348.46,5733.1C6343.56,5735.71 6338.86,5733.82 6334.46,5729.32C6321.73,5716.39 6308.57,5704.56 6300.61,5684.23C6295.2,5670.43 6287.45,5657.82 6280.17,5645.31C6276.13,5638.35 6274.77,5630.52 6273.85,5623.11C6273.04,5616.09 6277.61,5611.75 6280.68,5607.05C6281.55,5605.8 6282.42,5604.62 6283.35,5603.38C6286.32,5599.32 6289.47,5598.63 6294.11,5601.3C6305.82,5607.96 6318,5608.15 6329.99,5608.67C6336.32,5608.89 6339.32,5603.66 6340.9,5596.44C6341.2,5595.06 6340.77,5592.62 6340.02,5591.55C6339.24,5590.45 6337.11,5589.49 6336.45,5590.07C6328.02,5597.92 6318.05,5595.89 6308.21,5593.88C6291.1,5590.4 6291.92,5586.36 6296.7,5571.52C6298.49,5565.98 6298.23,5558.75 6298.2,5552.18C6298.18,5549.83 6296.04,5547.15 6294.88,5544.63C6293.58,5545.91 6292.09,5546.9 6291.13,5548.52C6290.09,5550.24 6289.25,5552.47 6288.81,5554.63C6286.21,5566.99 6279.52,5575.08 6273.74,5584.2C6271,5588.59 6267.92,5592.51 6265.33,5596.98C6256.65,5612.13 6255.93,5629.81 6264.42,5647.21C6274.48,5667.86 6284.23,5689.04 6297.25,5707.09C6299.03,5709.53 6300.17,5712.85 6302.34,5716.99C6283.72,5713.4 6268.8,5703.13 6256.38,5685.07C6255.44,5683.79 6254.6,5681.87 6253.45,5681.08C6252.48,5680.38 6251.06,5680.66 6250.09,5681.08C6249.63,5681.34 6249.4,5683.37 6249.69,5684.26C6252.28,5691.91 6256.09,5698.17 6261.19,5703.25C6270.48,5712.33 6280.24,5719.52 6291.02,5723.61C6295.15,5725.2 6299.92,5725.53 6302.79,5731.84C6301.93,5732.5 6301.61,5733 6301.19,5733.05C6299.91,5733.41 6298.62,5733.7 6297.28,5733.73C6280.12,5733.82 6263.53,5729.1 6247.29,5717.6C6232.44,5707.04 6219.07,5692.92 6204.22,5682.33C6197.77,5677.67 6192.37,5669.77 6186.25,5663.84C6178.39,5656.13 6172.44,5646.44 6168.06,5634.99C6166.34,5630.46 6164.89,5625.86 6163.2,5621.27C6159.43,5610.9 6154.06,5602.06 6147.38,5594.68C6146.64,5593.86 6144.5,5593.53 6144.07,5594.24C6143.44,5595.31 6143.51,5597.59 6143.94,5599.07C6144.29,5600.74 6145.25,5602.42 6146.23,5603.79C6152.91,5613.26 6157.18,5624.24 6161.25,5635.78C6164.4,5644.76 6169.15,5653.02 6173.85,5660.91C6176.33,5665.12 6180.12,5667.98 6184.8,5673.01C6171.45,5673.91 6159.32,5672.54 6147.24,5682.44C6156.74,5685.22 6163.45,5683.31 6170.08,5682.26C6181.14,5680.38 6191.68,5684.94 6201.42,5692.4C6214.47,5702.32 6226.8,5714.11 6239.59,5724.92C6243.9,5728.64 6248.48,5731.73 6252.97,5735.11C6270.27,5747.84 6288.89,5751 6307.07,5754.15C6319.03,5756.24 6329.41,5761.13 6340.36,5768.72C6359.24,5781.84 6376.63,5797.84 6393.96,5814.31C6404.86,5824.69 6412.44,5839.73 6422.2,5851.66C6432.14,5863.95 6437.54,5880.56 6445.2,5895C6446.79,5897.99 6447.53,5901.88 6448.35,5905.44C6453.09,5926.22 6458.09,5947 6462.27,5967.96C6463.86,5976.14 6465.09,5985.64 6463.51,5992.99C6460.88,6005.57 6463.34,6016.79 6467.12,6028.42C6468.98,6034.21 6471.44,6039.7 6473.16,6045.49C6474.22,6048.95 6474.42,6052.85 6475.01,6056.55C6468.04,6045.9 6462.21,6035.04 6457.31,6023.64C6443.68,5991.9 6425.43,5964.89 6406.28,5939.4C6379.22,5903.39 6346.43,5882.57 6311.05,5871.52C6295.69,5866.8 6281.14,5860.19 6267.67,5847.57C6233.95,5815.93 6200.7,5783.54 6176,5737.63C6174.11,5734.28 6171.14,5731.7 6168.38,5729.32C6162.91,5724.56 6156.94,5720.78 6151.74,5715.51C6142.54,5706.18 6132.79,5699.15 6121.94,5695.32C6107.72,5690.32 6098.79,5677.36 6093.9,5658.95C6089.45,5642.32 6086.18,5625.55 6089.35,5608.73C6089.7,5607.05 6089.98,5605.03 6089.59,5603.35C6085.36,5584.96 6081.07,5566.49 6076.49,5548.2C6076.1,5546.65 6073.66,5545.17 6072.07,5544.73C6071.39,5544.57 6070.13,5546.71 6069.7,5548.27C6067.69,5555.46 6069.75,5562.35 6072.32,5569.38C6076.93,5582.06 6079.95,5595.23 6078.36,5608.67C6075.4,5633.26 6077.03,5657.72 6084.67,5682.19C6086.73,5688.86 6085.69,5691.2 6081.23,5692.92C6076.24,5694.77 6071.15,5696.47 6066.2,5698.53C6058.58,5701.6 6051.32,5700.09 6044.66,5692.16C6039.7,5686.2 6034.84,5680.22 6030.2,5673.91C6026.12,5668.4 6022,5662.96 6016.29,5661.7C6014.36,5661.31 6012.3,5662.82 6010.3,5663.4C6010.91,5665.65 6011.12,5668.4 6012.23,5670.02C6019.95,5681.3 6027.9,5692.23 6035.61,5703.5C6041.46,5712.08 6048.55,5716.31 6056.43,5717.05C6069.81,5718.36 6083.22,5719.68 6096.57,5720.07C6107.64,5720.32 6118.51,5725.12 6127.59,5732.91C6148.2,5750.53 6167.68,5770.89 6182.14,5798.56C6183.2,5800.64 6184.63,5802.49 6186.06,5804.1C6196.23,5815.46 6206.43,5826.72 6216.56,5838.1C6217.56,5839.18 6218.2,5840.96 6220.22,5844.66C6211.74,5844.89 6204.9,5847.18 6197.35,5846.93C6184.89,5846.48 6172.57,5847.13 6160.38,5849.98C6141.89,5854.29 6123.3,5858.55 6103.91,5857.61C6086.95,5856.8 6070.11,5857.23 6053.14,5856.54C6047.39,5856.26 6041.42,5855.03 6035.77,5852.75C6028.04,5849.69 6020.98,5843.74 6018.02,5832.69C6015.06,5821.58 6013.02,5810.09 6011.12,5798.67C6010.57,5795.45 6011.18,5791.2 6012.48,5788.65C6023.78,5766.51 6025.61,5739.69 6027.16,5712.85C6027.25,5711.21 6025.49,5709.11 6024.61,5707.31C6023.64,5708.27 6022.13,5708.82 6021.79,5710.16C6019.24,5719.43 6016.88,5728.8 6014.54,5738.21C6011.64,5750.04 6008.42,5756.13 6001.21,5762.88C5998.14,5756.6 5995.24,5750.04 5991.97,5743.89C5986.27,5733.1 5986.12,5723.19 5991.41,5713.82C5992.66,5711.5 5994.08,5709.28 5994.99,5706.7C5995.56,5705.22 5995.26,5703.06 5995.54,5697.84C5991.94,5702.42 5990.17,5704.7 5988.31,5706.85C5984.26,5711.64 5982.44,5711.53 5977.94,5706.53C5972.96,5701.24 5969.09,5694.98 5967.73,5686.56C5964.77,5668.59 5959.96,5650.75 5959.59,5632.31C5959.48,5626.51 5957.72,5620.42 5956.41,5614.52C5956.2,5613.51 5954.35,5612.49 5953.22,5612.21C5952.65,5611.99 5951.56,5613.26 5951.38,5614.22C5950.82,5617.02 5950.27,5619.85 5950.29,5622.72C5950.27,5631.16 5950.39,5639.57 5950.75,5648.03C5951.16,5658.93 5950.35,5670.25 5952.76,5680.66C5958.03,5703.79 5965.63,5726.06 5975.24,5747.27C5983.29,5765.02 5992.41,5782.73 5989.83,5804.18C5989.63,5805.89 5990.1,5807.81 5990.27,5809.67C5991.58,5824.28 5993.78,5838.6 5998.6,5852.7C6003.05,5865.69 6001.55,5869.86 5993.34,5875.7C5984.75,5882.01 5976.3,5888.79 5967.73,5895.16C5961.64,5899.71 5957.19,5906.46 5953.17,5913.96C5944.17,5930.67 5934.86,5946.94 5925.65,5963.43C5924.95,5964.81 5924.3,5966.35 5923.95,5968.02C5923.73,5968.95 5923.93,5970.54 5924.43,5971.29C5924.91,5972.13 5926.2,5972.99 5926.73,5972.74C5928.81,5971.91 5930.88,5970.93 5932.63,5969.45C5943.71,5959.73 5953.49,5947.98 5962.13,5934.48C5970.3,5921.61 5980.69,5911.98 5993.68,5910.09C6017.01,5906.72 6040.63,5910.03 6064.41,5917.74C6075.01,5921.18 6085.81,5922.58 6096.51,5924.6C6099.16,5925.01 6102.63,5925.37 6104.21,5923.54C6108.23,5918.87 6112.99,5919.69 6117.86,5919.5C6136.97,5918.67 6156.1,5920.51 6175.45,5924.33C6183.41,5925.94 6191.34,5926.39 6199.34,5924.77C6212.75,5922.02 6226.36,5920.4 6240.36,5928.23C6244.1,5930.26 6248.92,5931.99 6252.22,5930.59C6259.51,5927.52 6266.25,5930.2 6273.1,5933.93C6317.63,5958.23 6357.37,5993.88 6393.05,6038.99C6400.23,6048.1 6406.9,6058.69 6411.85,6070.05C6422.7,6095.28 6432.38,6121.32 6437.53,6149.37C6440.26,6164.35 6442.29,6179.42 6444.92,6194.37C6447.47,6209.01 6448.04,6223.44 6448.29,6238.06C6448.53,6251.79 6447.22,6265.62 6450.83,6279.73C6451.99,6284.2 6451.05,6289.38 6451.36,6294.21C6451.86,6302.09 6450.5,6304.56 6443.87,6304.97C6436.37,6305.44 6428.57,6303.9 6421.28,6305.44C6404.65,6308.89 6387.58,6306.72 6370.61,6304.97C6365.05,6304.48 6358.92,6301.24 6354,6297.01C6344.5,6288.97 6335.75,6279.12 6326.53,6270.44C6321.56,6265.75 6316.28,6261.58 6311.02,6257.46C6296.05,6245.72 6281.02,6234.16 6266.03,6222.42C6251.5,6210.98 6237.38,6198.18 6222.37,6188.17C6211.92,6181.11 6201.7,6173.62 6191.94,6164.73C6188.49,6161.69 6184.95,6158.26 6182.07,6154.15C6164.98,6129.99 6156.04,6100.1 6146.83,6070.74C6142.07,6055.4 6147.95,6039.29 6159.08,6033.45C6178.65,6023.1 6198.24,6012.73 6217.81,6002.35C6218.21,6002.1 6218.76,6001.97 6218.95,6001.59C6219.72,5999.77 6220.88,5997.99 6220.99,5996.01C6221.03,5995 6219.07,5992.67 6218.07,5992.55C6213.19,5992 6207.98,5990.6 6203.51,5992.07C6189.61,5996.66 6176,6002.29 6162.31,6007.77C6159.07,6009.02 6156.05,6011.54 6152.73,6012.84C6145.24,6015.61 6138.16,6015.16 6131.68,6005.54C6127.61,5999.42 6122.93,5993.47 6117.86,5989.4C6098.46,5974.04 6078.36,5960.63 6059.8,5943.1C6057.25,5940.72 6054.64,5940.08 6052.69,5943.43C6050.73,5946.64 6051.56,5950.59 6053.58,5953.36C6056.28,5956.87 6059.36,5959.89 6062.57,5962.37C6066.18,5965.22 6070.05,5967.72 6073.92,5969.53C6085.81,5975.07 6093.18,5987.17 6099.23,6001.23C6101.61,6006.72 6103.66,6012.36 6105.51,6018.16C6109.99,6032.05 6114.28,6045.96 6118.61,6059.9C6121.94,6070.49 6124.47,6081.8 6122.81,6092.23C6120.62,6105.23 6121.38,6118.3 6122.06,6131.7C6122.73,6145.64 6121.78,6147.01 6111.95,6148.96C6111.11,6149.12 6110.25,6149.61 6109.4,6149.45C6099.18,6147.63 6090.38,6152.6 6081.03,6155.24C6070.41,6158.2 6059.58,6160.89 6048.58,6161.3C6040.77,6161.66 6032.68,6161.25 6024.8,6160.68C6012.07,6159.77 6000.18,6162.98 5988.06,6164.95C5983.12,6165.81 5978.55,6169.73 5974.23,6173.14C5971.88,6174.99 5973.6,6181.14 5976.49,6181.48C5980.47,6182.03 5984.43,6181.81 5988.34,6181.5C6006,6180.35 6023.64,6178.97 6041.28,6177.66C6041.73,6177.63 6042.19,6177.6 6042.61,6177.72C6057.09,6180.7 6070.99,6177.74 6084.7,6174.99C6096.86,6172.53 6109.21,6172.58 6121.51,6172.66C6141.66,6172.78 6161.66,6177.89 6179.96,6194.7C6180.75,6195.44 6181.6,6195.99 6182.36,6196.68C6201.05,6212.04 6222.11,6222.1 6237.14,6245.8C6237.45,6246.27 6237.92,6246.57 6238.28,6246.95C6252.38,6261.94 6266.48,6276.89 6280.54,6291.96C6283.44,6295.12 6286.3,6298.63 6288.9,6302.28C6291.79,6306.26 6291.86,6309.91 6289.07,6313.28C6286.93,6315.95 6284.53,6318.64 6281.76,6319.87C6274.09,6323.52 6266.24,6326.73 6257.68,6327.2C6251.57,6327.56 6245.47,6328.96 6239.61,6330.68C6231.53,6333.07 6223.67,6336.28 6215.69,6339.11C6210.36,6340.93 6205.78,6340.01 6200.63,6334.47C6192.89,6326.18 6184.28,6319.33 6175.95,6312.24C6167.28,6304.91 6157.9,6302.91 6148.47,6303.44C6147.53,6303.47 6146.23,6305.35 6146.16,6306.72C6146.05,6308.1 6146.93,6310.46 6147.9,6311.23C6149.87,6312.84 6152.09,6313.67 6154.27,6314.68C6162.49,6318.56 6179.96,6334.4 6188.2,6345.84C6185.69,6347.31 6183.49,6348.68 6181.22,6349.85C6173.08,6353.93 6167.78,6361.51 6165.27,6372.92C6163.2,6382.53 6160.64,6391.77 6158.43,6401.21C6157.9,6403.46 6157.68,6405.93 6157.86,6408.32C6158.46,6415.65 6162.83,6418.78 6167.09,6421.33C6171.09,6423.83 6172.24,6419.52 6173.79,6415.84C6180.08,6401.02 6188.67,6389.58 6200.38,6382.66C6209.01,6377.59 6217.51,6371.83 6226.61,6368.33C6242.29,6362.35 6257.91,6355.24 6275.71,6361.58C6279.98,6363.15 6284.73,6362.44 6288.98,6361.42C6300.56,6358.71 6311.82,6360.57 6323.18,6367.73C6336.32,6376.02 6349.68,6376.02 6362.88,6373.94C6365.78,6373.47 6368.82,6371.74 6370.98,6369.35C6380.35,6358.93 6391.34,6358.29 6403.41,6362.76C6407.85,6364.38 6412.37,6365.65 6416.66,6367.63C6431.06,6374.22 6445.57,6380.55 6459.76,6388.07C6469.67,6393.24 6479.05,6400.77 6488.93,6406.04C6501.41,6412.71 6514.09,6418.86 6526.99,6413.02C6530.07,6411.53 6533.96,6412.69 6537.55,6412.83C6540.16,6413.02 6543.12,6414.5 6545.45,6413.56C6560.71,6407.55 6574.97,6415.49 6587.76,6427.64C6602.94,6442.08 6614.03,6460.57 6610.83,6487.09C6609.98,6494 6611.1,6501.58 6610.77,6508.72C6609.88,6526.94 6611.49,6545.16 6615.9,6562.88C6622.79,6590.85 6627.79,6618.95 6631.77,6647.44C6634,6663.43 6633.7,6678.86 6632.99,6694.45C6631.39,6727.14 6619.78,6753.48 6609.45,6780.65C6604.03,6795.03 6597.74,6808.66 6591.9,6822.74C6583.12,6843.93 6580.38,6867.62 6581.67,6892.98C6582.28,6905.66 6582.66,6918.41 6583.31,6931.17C6583.88,6942.7 6584.26,6954.2 6585.23,6965.72C6587.29,6990.62 6589.13,7015.43 6591.89,7040.26C6595.17,7069.93 6587.63,7094.63 6578.26,7117.87C6570.62,7136.92 6557.83,7149.9 6542.99,7158.41C6521.13,7170.94 6501.35,7187.49 6482.77,7206.62C6469.24,7220.43 6455.67,7234.12 6442.67,7248.77C6437.22,7254.9 6433.02,7263.1 6428.6,7270.73C6426.29,7274.7 6424.92,7279.86 6422.69,7284.04C6418.29,7292.16 6416,7301.52 6415.38,7311.78C6414.4,7326.53 6413.26,7341.27 6413.73,7356.6C6414.38,7377.98 6409.58,7395.14 6398.59,7406.72C6397.1,7423.68 6396.96,7440.43 6399.46,7455.92C6428.05,7477.29 6474.42,7467.2 6485.67,7432.01C6485.59,7429.56 6485.83,7427.03 6485.49,7424.68C6483.48,7410.61 6486.59,7399.8 6490.2,7388.82C6500.64,7357.4 6522.74,7347.65 6548.51,7360.77C6566.92,7370.16 6579.7,7396.48 6575.17,7423.01C6573.12,7435.03 6571.43,7447.42 6571.06,7459.95C6570.76,7470.22 6568.3,7478.1 6563.92,7485.45C6558.59,7494.41 6553.49,7503.67 6548.49,7513.01C6543.48,7529.53 6541.76,7546.01 6549.28,7566.18C6554.74,7580.85 6556.34,7584.86 6570.4,7588.81C6572.44,7589.38 6574.64,7589.58 6576.74,7589.97C6585.27,7568.68 6595.97,7548.52 6609.62,7529.79C6629.99,7501.84 6649.81,7482.05 6649.95,7445.16C6649.96,7443.65 6650.56,7442.57 6650.77,7441.21C6650.82,7439.53 6650.59,7437.95 6650.76,7436.21C6651.26,7431.46 6651.81,7426.78 6651.73,7421.94C6651.62,7414.54 6652.11,7408.03 6656.48,7402.89C6658.54,7400.56 6658.99,7395.79 6660.27,7392.19C6663.93,7381.73 6667.58,7371.26 6671.45,7361C6672.35,7358.52 6673.79,7356.02 6675.57,7354.66C6682.57,7349.3 6689.58,7343.95 6696.96,7339.45C6699.96,7337.67 6703.79,7338.21 6707.84,7337.58C6714.85,7337.86 6722.34,7338.11 6729.82,7338.47C6731.79,7338.56 6733.09,7339.63 6734.02,7341.37C6737.53,7342.48 6740.8,7343.92 6743.8,7345.68C6744.12,7345.76 6744.52,7345.62 6744.8,7345.82C6745.53,7346.3 6746.1,7346.93 6746.81,7347.43C6748.85,7348.82 6750.74,7350.42 6752.58,7352.07C6758.18,7356.9 6763.03,7362.59 6767.05,7369.32C6772.39,7377.46 6777.05,7386.25 6781.91,7394.43C6788.09,7404.81 6790.84,7409.11 6802.9,7411.13C6805.52,7411.57 6814.75,7412.28 6820.89,7411.49C6823.34,7405.57 6825.72,7399.6 6828.2,7393.73C6832.4,7383.83 6837.68,7374.38 6844,7367.08C6854.11,7355.23 6868.57,7360.77 6876.12,7378.07C6878.01,7382.4 6879.36,7387.21 6880.66,7391.87C6883.2,7400.62 6885.02,7409.7 6888.01,7418.18C6894.76,7437.74 6897.74,7457.33 6898.41,7476.92C6902.07,7484.31 6910.01,7485.05 6919.86,7483.48C6927.71,7482.22 6931.92,7478.42 6935.36,7473.26C6935.39,7443.89 6936.47,7414.76 6941.39,7386.79C6942.52,7380.28 6945.06,7375.04 6949.25,7371.58C6950.86,7370.26 6952.7,7369.9 6954.56,7369.96C6955.4,7368.79 6956.16,7367.61 6957.12,7366.43C6962.65,7359.7 6972.69,7360.36 6979.67,7363.51C6989.24,7367.85 6996.98,7375.57 7001.73,7384.77C7003.8,7384.22 7005.74,7386.04 7007.35,7389.34C7011.81,7391.49 7016.21,7393.82 7020.58,7396.09C7025.27,7398.51 7029.92,7401.17 7034.78,7403.21C7035.43,7403.5 7036.21,7403.82 7037.01,7404.1C7038.92,7403.35 7040.24,7403.32 7041,7403.68C7046.48,7401.48 7052.22,7400.88 7059.52,7403.33C7068.33,7406.29 7074.94,7412.59 7080.06,7420.35C7083.36,7422.2 7086.52,7424.78 7089.64,7427.96C7099.74,7438.35 7109.7,7449.27 7120.46,7458.29C7137.66,7472.66 7150.2,7470.87 7160.83,7457.71C7164.25,7453.45 7167.12,7448.48 7170.32,7443.95C7173.52,7439.39 7176.22,7433.7 7180.16,7430.79C7194.39,7420.24 7209.78,7415.08 7227.12,7424.65C7237.97,7430.64 7248.32,7437.86 7255.62,7451.55C7257.79,7455.61 7259.1,7460.07 7260.98,7464.26C7264.88,7471.04 7268.19,7478.19 7271.39,7486.16C7276.06,7497.78 7278.97,7512.91 7286.22,7523.29C7291.19,7530.4 7298.85,7534.28 7307.36,7536.24C7312.8,7532.57 7318.07,7527.87 7323.01,7520.68C7322.57,7518.08 7321.59,7514.55 7319.43,7510.04C7311.81,7494.24 7309.75,7474.05 7306.67,7456.74C7305.67,7451.1 7305,7445.32 7304.49,7439.5C7301.27,7431.69 7298.3,7423.71 7295.73,7415.44C7292.84,7406.16 7287.54,7395.62 7286.56,7390.9C7285.4,7389.49 7284.25,7387.77 7283.09,7386.44C7282.76,7386.05 7282.5,7385.66 7282.18,7385.28C7281.3,7384.8 7280.42,7384.26 7279.8,7383.52C7268.53,7370.26 7255.36,7362.36 7242.2,7354.46C7222.53,7342.64 7202.99,7331.63 7181.73,7335.53C7170.96,7337.49 7161.55,7329.1 7153.24,7319.17C7151.01,7316.48 7149.67,7311.9 7148.7,7307.97C7146.73,7299.66 7145.25,7291.26 7143.63,7282.89C7141.3,7270.84 7138.76,7258.95 7136.61,7246.86C7130.48,7212.88 7115.64,7188.52 7091.88,7173.28C7081.27,7166.53 7070.39,7161.63 7059.14,7159.15C7052.58,7157.8 7046.93,7153.96 7041.93,7147.62C7035.98,7140.2 7029.72,7133.44 7024.12,7125.66C7019.86,7119.74 7015.66,7113.28 7012.82,7106.15C7001.6,7078.38 6990.99,7050.14 6980.11,7022.12C6968.06,6991.07 6960.62,6958.26 6952.36,6925.7C6948.85,6911.91 6947.37,6898.19 6947.4,6884.1C6947.51,6861.11 6950.07,6838.91 6953.39,6816.85C6954.63,6808.83 6956.4,6800.79 6956.74,6792.44C6957.8,6766.57 6963.07,6742.26 6965.7,6716.9C6966.79,6706.33 6968.03,6695.82 6969.4,6685.34C6969.88,6681.93 6970.24,6677.51 6971.98,6675.75C6976.19,6671.35 6977.19,6665.85 6976.25,6658.61C6975.9,6655.75 6976.39,6652.52 6977.2,6649.94C6984.94,6624.24 6995.5,6601.27 7012.67,6586.18C7027.96,6572.76 7044.28,6561.43 7062.2,6554.13C7064.25,6553.33 7066.2,6551.93 7067.94,6550.37C7083.65,6536.43 7101.42,6527.73 7119.57,6520.13C7122.82,6518.76 7126.52,6518.76 7129.99,6518.43C7136.17,6517.77 7142.35,6517.77 7148.47,6516.81C7160.61,6515.03 7172.65,6511.49 7184.96,6511.12C7199.57,6510.71 7214.28,6512.14 7229.15,6515.03C7242.22,6517.6 7253.59,6524.68 7264.66,6534.18C7269.86,6538.7 7273.88,6544.22 7272.68,6554.1C7271.97,6559.45 7273.65,6566.25 7275.51,6571.78C7278.3,6580.37 7281.48,6589.2 7285.74,6596.69C7296.07,6614.84 7306.78,6632.75 7318.02,6649.95C7324.21,6659.44 7328.59,6669.31 7330.59,6681.14C7331.65,6687.09 7333.11,6692.99 7334.57,6698.92C7334.77,6699.71 7336.04,6700.6 7336.78,6700.7C7337.5,6700.76 7338.71,6700.05 7338.84,6699.33C7341.01,6683.2 7341.08,6667.22 7332.09,6652.37C7330.1,6649.09 7327.64,6646.12 7329.67,6640.64C7335.34,6646.53 7340.54,6651.96 7345.73,6657.34C7359.52,6671.59 7374.5,6677.88 7390.65,6675.62C7396.2,6674.83 7399.41,6671.94 7398.26,6668.93C7396.24,6663.82 7392.7,6665.39 7389.77,6664.81C7371.8,6660.81 7355.43,6652.08 7342.26,6632.2C7335.57,6622.14 7327.55,6614.1 7318.54,6608.58C7310,6603.34 7305.55,6594.11 7303.26,6582.81C7302.08,6576.86 7301.19,6570.73 7300.86,6564.67C7299.61,6544.06 7296.14,6538.08 7317.79,6548.12C7327.33,6552.62 7336.9,6558.69 7346.55,6560.77C7361.61,6563.87 7377.2,6567.36 7390.46,6556.06C7393.77,6553.25 7397.26,6554.54 7400.45,6558.11C7402.65,6560.55 7404.78,6563.1 7406.82,6565.68C7420.26,6582.81 7447.27,6577.89 7455.51,6563.26C7456.41,6561.68 7456.84,6557.43 7456.41,6557.04C7454.59,6555.58 7452.06,6553.89 7450.46,6554.46C7446.72,6555.86 7443.45,6558.93 7439.75,6560.52C7432.25,6563.57 7424.36,6565.84 7416.39,6560.36C7411.15,6556.65 7406.44,6551.11 7401.41,6546.39C7402.36,6543.64 7402.58,6541.67 7403.42,6540.65C7410.33,6532.68 7412.18,6521.17 7413.19,6509.2C7413.41,6506.18 7413.92,6502.73 7411.15,6501.58C7409.97,6501.02 7408.12,6502.89 7407.09,6504.4C7402.31,6511.62 7398.1,6519.61 7392.9,6526.25C7387.72,6532.97 7381.43,6537.8 7373.4,6537.85C7366.33,6537.88 7359.26,6538.46 7352.21,6538.76C7344.21,6539.06 7336.25,6539.34 7328.29,6534.4C7308.45,6521.91 7288.59,6509.53 7268.64,6497.51C7264.04,6494.68 7259.09,6492.3 7254.27,6491.42C7244.93,6489.64 7235.48,6489.06 7226.1,6487.91C7215,6486.59 7203.98,6484.29 7192.97,6487.09C7187.18,6488.56 7180.57,6486.59 7174.36,6485.33C7165.7,6483.57 7162.73,6476.9 7164.95,6465.82C7171.24,6434.03 7183.81,6407.55 7198.46,6382.85C7208.17,6366.48 7236.88,6355.68 7256.8,6372.4C7279.51,6391.42 7303.31,6407.77 7326.77,6425.12C7349.4,6441.94 7372.34,6448.06 7395.49,6437.61C7402.84,6434.25 7410.17,6430.8 7417.23,6426.74C7424.73,6422.35 7431.74,6423.69 7438.79,6430.88C7442.54,6434.72 7446.15,6439.03 7450.13,6442.27C7465.4,6454.59 7480.5,6461.48 7495.41,6447.46C7501.3,6441.94 7507.98,6438.01 7514.32,6433.32C7535.85,6417.35 7533.34,6420.53 7551.18,6438.01C7560.24,6446.85 7566.64,6445.73 7574.63,6432.12C7575.34,6430.88 7574.68,6427.59 7573.92,6425.64C7573.63,6424.71 7571.28,6423.83 7570.44,6424.38C7562.25,6429.76 7554.98,6424.57 7547.79,6417.68C7545.12,6415.13 7542.49,6412.19 7539.65,6410.16C7535.71,6407.51 7533.96,6403.82 7534.36,6398.28C7534.64,6394.1 7535,6389.93 7535.06,6385.7C7535.61,6366.8 7528.88,6349.92 7522.41,6333.07C7522.15,6332.27 7520.76,6331.64 7520.09,6331.73C7519.48,6331.92 7518.59,6333.29 7518.69,6333.95C7519.45,6338.8 7520.16,6343.64 7521.41,6348.26C7526.44,6366.36 7528.32,6384.11 7524.71,6401.82C7523.84,6405.93 7522.67,6408.98 7519.56,6410.93C7508.42,6417.74 7497.51,6425.2 7486.44,6432.26C7478.54,6437.3 7470.28,6437.8 7462.1,6430.86C7453.75,6423.8 7445.71,6415.9 7437.95,6407.72C7433.41,6402.97 7433.6,6396.11 7437.92,6392.68C7443.8,6388.01 7449.95,6384.09 7455.85,6379.48C7458.33,6377.59 7460.7,6375.2 7462.69,6372.51C7465.35,6368.91 7467.58,6364.72 7470.07,6360.87C7479.92,6345.72 7481.06,6327.65 7475.54,6307.39C7475.32,6306.56 7474.12,6305.69 7473.39,6305.55C7472.6,6305.47 7471.31,6305.99 7471.19,6306.66C7470.78,6309.5 7470.48,6312.49 7470.48,6315.4C7470.44,6341.66 7462,6353.05 7442.58,6353.52C7439.08,6342.4 7436.11,6331.26 7431.99,6320.75C7426.01,6305.38 7421.87,6289.71 7420.7,6273.02C7419.86,6260.27 7418.93,6247.56 7418.09,6234.82C7417.92,6231.59 7417.51,6227.88 7414.77,6228.03C7413.53,6228.07 7412.44,6231.83 7411.65,6234.16C7411.19,6235.74 7411.35,6237.76 7411.42,6239.54C7412.88,6267.54 7415.22,6295.25 7425.82,6321.91C7429.28,6330.55 7430.16,6340.75 7431.71,6350.36C7432.36,6354.59 7431.47,6359.09 7428.19,6360.74C7421.76,6363.97 7418.42,6371.08 7414.98,6378.52C7411.81,6385.27 7407.98,6391.55 7404.03,6397.51C7395.55,6410.28 7384.66,6415.46 7370.97,6411.01C7365.23,6409.2 7359.36,6406.15 7353.7,6406.11C7347.15,6405.99 7341.25,6403.49 7335.48,6399.13C7327.68,6393.42 7319.93,6387.57 7312.22,6381.45C7305.36,6376.07 7298.9,6369 7291.69,6364.99C7275.33,6355.91 7260.03,6343.58 7244.28,6332.47C7231.51,6323.55 7220.41,6313.42 7213.97,6294.93C7210.66,6285.27 7205.31,6276.59 7202.07,6266.93C7196.03,6248.8 7196.87,6232.44 7211.17,6225.52C7216.41,6222.97 7221.95,6221.49 7227.31,6219.4C7230.63,6218.14 7234.28,6217.48 7236.98,6215.03C7244.86,6208.18 7253.26,6209.11 7262.38,6213.58C7271.95,6218.19 7281.61,6222.31 7291.25,6226.59C7302.02,6231.34 7309.02,6223.9 7315.55,6215.48C7316.35,6214.49 7316.03,6210.57 7315.17,6209.06C7314.27,6207.49 7311.9,6206.17 7310.48,6206.5C7308.42,6206.91 7306.52,6208.64 7304.82,6210.23C7300.35,6214.49 7294.99,6215.59 7289.7,6213.88C7277.41,6210.07 7265.19,6205.1 7251.77,6200.11C7253.65,6194.98 7255.33,6191.68 7256.07,6187.95C7256.99,6183.56 7257.62,6178.78 7257.33,6174.15C7257.22,6171.87 7254.97,6168.61 7253.19,6167.48C7250.57,6165.81 7249.12,6168.85 7248.57,6171.71C7244.68,6193.19 7233.05,6203.98 7218.46,6209.65C7207.76,6213.88 7198.34,6219.73 7191.83,6231.92C7191.21,6233.09 7189.69,6233.37 7188.48,6234.11C7182.48,6226.24 7181.1,6217.75 7183.6,6208.75C7185.53,6201.7 7187.95,6194.87 7190.41,6188.17C7192.88,6181.48 7196.06,6175.3 7198.21,6168.36C7201.05,6159.16 7202.07,6149.31 7197.56,6137.52C7195.52,6139.1 7194.59,6139.44 7194.19,6140.31C7186.48,6156.17 7178.57,6171.77 7171.36,6188.03C7168.77,6193.79 7167.3,6200.82 7166.29,6207.66C7165.2,6215.15 7165.31,6223.13 7164.67,6230.82C7164,6238.83 7165.59,6246.27 7167.79,6254.12C7172.08,6269.07 7178.94,6281.72 7186.31,6294.33C7198.13,6314.46 7196.52,6330.8 7182.02,6342.98C7180.95,6343.86 7179.77,6344.54 7178.62,6345.36C7152.67,6364.14 7134.43,6392.87 7121.51,6428.36C7118.84,6435.65 7116.94,6443.53 7111.14,6447.29C7102.26,6443.59 7101.78,6457.47 7095.63,6459.34C7093.93,6459.92 7092,6460.66 7090.44,6459.97C7083.16,6456.6 7076.98,6460.11 7071.31,6463.51C7048.54,6476.87 7026.13,6491.26 7008.56,6515.35C7002.67,6523.39 6996.01,6530.42 6989.06,6538.7C6986.49,6530.58 6987.66,6524.6 6989.04,6519.47C6995.65,6494.55 6998.41,6468.04 7001.55,6441.72C7002.1,6437.11 7003.38,6432.66 7003.36,6428C7003.24,6399.73 7010.37,6375.33 7022.04,6354.76C7030.11,6340.65 7036.79,6325.36 7044.44,6310.98C7054.19,6292.6 7065.67,6276.78 7081.23,6267.48C7088.61,6263.17 7094.08,6256.73 7098.19,6247.67C7100.64,6242.32 7103.73,6237.46 7105.63,6231.61C7110.33,6217.51 7116.67,6204.36 7117.2,6187.41C7117.37,6182.44 7119.7,6177.77 7121.38,6173.3C7125.24,6163.23 7130.8,6154.09 7132.93,6143.16C7134.75,6134 7136.86,6125.46 7139.74,6117.14C7142.05,6110.29 7144.22,6103.37 7145.72,6096.04C7151.86,6065.88 7165.36,6046.86 7189.17,6042.43C7197.4,6040.88 7205.79,6039.12 7213.36,6035.26C7228.34,6027.57 7244.16,6024.19 7260.17,6020.96C7277.6,6017.45 7294.03,6019.65 7311.56,6029.69C7336.25,6043.93 7361.02,6059.02 7387.32,6064.6C7389.93,6065.17 7392.64,6066.62 7395.15,6068.19C7404.4,6073.84 7413.53,6080.29 7422.85,6085.64C7443.21,6097.31 7459.56,6115.5 7472.84,6139.85C7478.99,6151.07 7485.38,6162.48 7492.87,6172C7501.84,6183.24 7512.41,6191.85 7524.05,6196.95C7526.39,6197.96 7529.01,6198.16 7529.31,6194.52C7529.56,6192.07 7528.54,6188.44 7527.14,6186.36C7525.73,6184.22 7523.24,6183.28 7521.17,6181.83C7516.59,6178.68 7511.73,6176.17 7507.51,6172.19C7499.26,6164.41 7490.22,6157.13 7487.28,6141.54C7499.29,6143.3 7510.73,6142.65 7519.27,6133.7C7527.03,6125.62 7534.38,6127.36 7542.73,6132.79C7547.34,6135.73 7552.22,6138.2 7556.38,6142.18C7563.5,6148.96 7570.5,6150.39 7578.28,6148.79C7586.5,6147.09 7594.87,6146.73 7602.46,6141.99C7607.22,6139.1 7611.31,6141.96 7614.16,6148C7621.9,6164.65 7629.41,6181.48 7637.6,6197.73C7642.09,6206.67 7647.58,6214.74 7652.91,6222.89C7655.81,6227.31 7659.55,6228.21 7661.32,6225.66C7663.77,6221.82 7662.19,6217.78 7660.23,6213.99C7658.9,6211.36 7657.1,6209.11 7655.81,6206.5C7645.52,6185.18 7635.21,6163.88 7625.12,6142.43C7622.32,6136.38 7623.28,6131.92 7627.3,6128.86C7628.72,6127.74 7630.44,6127.16 7632.09,6126.4C7641.54,6121.62 7651.55,6121.1 7662.02,6123.13C7664.9,6123.7 7668.03,6122.91 7670.77,6121.76C7672.91,6120.9 7673.12,6115.99 7671.19,6114.24C7668.52,6111.85 7665.59,6109.52 7662.69,6108.48C7658.27,6106.94 7653.69,6105.95 7649.26,6105.67C7636.52,6104.75 7622.98,6100.24 7613.04,6113.53C7602.89,6117.64 7593.2,6124.66 7580.7,6118.3C7580.72,6115.77 7580.79,6113.44 7580.62,6111.22C7579.98,6103.48 7578.35,6100.03 7574.21,6098.27C7569.81,6096.34 7569.47,6101.64 7567.92,6104.8C7562.36,6115.86 7560.24,6116.52 7550.26,6111.09C7543.83,6107.52 7537.33,6104.2 7530.93,6100.44C7523.31,6095.99 7516.1,6095.25 7508.89,6099.42C7503.74,6102.49 7498.16,6103.43 7492.17,6099.86C7490.54,6098.92 7488.6,6098.19 7486.91,6098.38C7479.31,6099.31 7472.72,6094.37 7466.27,6089.16C7457.82,6082.38 7449.49,6075.19 7441.27,6067.8C7431.15,6058.69 7422.14,6047.11 7410.82,6040.58C7407.35,6038.58 7404.29,6033.32 7401.98,6028.67C7398.18,6021.09 7398.66,6016.89 7403.3,6011.27C7409.97,6003.31 7417.32,5996.37 7423.46,5987.8C7431.22,5977 7441.16,5971.81 7451.79,5968.98C7459.9,5966.73 7468.29,5967.53 7476.32,5975.84C7487.66,5987.48 7501.44,5986.35 7513.95,5992.09C7529.87,5988.44 7546.51,5989.13 7561.89,5982.07C7575.76,5975.79 7590.29,5971.81 7604.28,5965.91C7610.09,5963.33 7614.31,5965.55 7619.14,5970.71C7625,5977 7631.02,5983.91 7637.62,5988.08C7648.43,5994.89 7657.76,6004.3 7666.6,6014.94C7673.41,6023.23 7681.03,6029.72 7689.58,6032.54C7697.13,6034.98 7701.93,6040.23 7704.03,6050.4C7704.38,6052.21 7704.86,6054.09 7705.65,6055.65C7711.4,6067.26 7717.06,6078.87 7723.15,6090.18C7724.15,6091.9 7727.57,6093.11 7729.07,6092.34C7731.92,6090.83 7731.56,6086.66 7730.05,6083.03C7728.94,6080.29 7727.23,6077.9 7726.13,6075.13C7722.25,6065.06 7718.19,6055.04 7714.76,6044.69C7712.83,6038.86 7714.51,6034.37 7718.61,6034.02C7735.98,6032.52 7749.85,6021.5 7763.41,6009.4C7765.86,6007.29 7768.4,6005.19 7770.7,6002.77C7771.26,6002.22 7771.68,6000.35 7771.37,5999.55C7770.7,5998.07 7769.28,5995.63 7768.6,5995.79C7763.5,5996.78 7758.26,5997.65 7753.5,5999.91C7747.05,6002.99 7741.04,6007.55 7734.72,6011.05C7725.36,6016.21 7714.79,6014.15 7704.79,6015.28C7697.18,6016.18 7690.44,6014.24 7684.01,6008.6C7666.92,5993.76 7651.86,5975.27 7636.79,5956.77C7634.83,5954.38 7634.57,5951.25 7636.36,5948.75C7638.09,5946.36 7639.82,5943.51 7641.99,5942.01C7655.26,5932.7 7668.05,5922.08 7682.09,5915.16C7696.98,5907.87 7712.99,5903.72 7730.15,5908.36C7746.41,5912.89 7762.15,5911.51 7777.6,5906.88C7781.44,5905.73 7785.5,5904.77 7786.58,5898.86C7787.16,5895.9 7782.05,5893.46 7775.9,5893.89"
                        style="fill:rgb(228,228,231);" />
                </g>
            </g>
        </g>
    </g>
</svg>