<svg width="100%" height="100%" viewBox="0 0 225 300" version="1.1" xmlns="http://www.w3.org/2000/svg"
    xmlns:xlink="http://www.w3.org/1999/xlink" xml:space="preserve" xmlns:serif="http://www.serif.com/"
    style="fill-rule:evenodd;clip-rule:evenodd;stroke-linejoin:round;stroke-miterlimit:2;">
    <path
        d="M0.532,38.49c2.9,-18.093 13.353,-32.092 35.387,-37.859l173.049,-0.631c6.797,1.69 12.298,5.643 15.21,15.312l0.455,262.654c0.004,10.753 -6.956,16.856 -17.812,20.247l-169.652,0.08c-22.155,-4.673 -32.816,-15.658 -36.223,-35.053l-0.414,-224.75Zm112.389,141.363c3.906,-0 8.113,-4.617 9.689,-11.8c1.942,-8.854 3.05,-10.838 6.12,-14.039c2.671,-2.786 6.261,-2.916 12.3,-5.17c7.197,-2.686 13.876,-4.364 13.876,-10.426c-0,-4.612 -7.596,-7.023 -14.216,-9.797c-5.977,-2.505 -8.732,-1.908 -11.566,-4.649c-2.833,-2.74 -3.384,-5.31 -5.437,-11.793c-2.958,-9.339 -5.312,-14.188 -10.513,-14.188c-4.723,-0 -8.176,6.795 -10.199,13.469c-1.39,4.582 -1.761,9.068 -5.049,11.81c-3.924,3.273 -14.31,6.234 -18.501,7.829c-5.073,1.931 -8.163,4.301 -8.082,7.118c0.079,2.764 1.269,5.561 3.272,6.605c3.699,1.929 8.69,3.131 12.526,4.571c2.667,1.002 7.475,1.405 10.271,4.47c3.84,4.211 5.63,10.373 6.224,14.213c1.222,7.902 6.475,11.777 9.285,11.777Zm-73.223,54.868c-11.464,1.796 -16.029,10.885 -17.406,18.507c-1.523,8.428 4.199,22.278 16.697,24.312l163.018,0l-0,-42.819l-162.309,-0Zm117.858,-179.702c-7.018,0 -6.469,8.37 -9.439,10.967c-2.071,1.811 -9.841,2.165 -9.841,8.945c0,7.243 6.436,5.794 9.615,8.934c3.29,3.25 2.999,10.619 9.871,10.619c8.001,-0 6.682,-7.866 10.364,-10.657c3.877,-2.939 8.074,-1.609 9.172,-8.793c1.024,-6.698 -7.151,-6.978 -10.033,-9.825c-3.29,-3.25 -2.229,-10.19 -9.709,-10.19Z" />

    <style>
        @media (prefers-color-scheme: light) {
            :root {
                fill: #18181b;
            }
        }

        @media (prefers-color-scheme: dark) {
            :root {
                fill: #e4e4e7;
            }
        }
    </style>

</svg>